<svg width="43" height="43" viewBox="0 0 43 43" fill="none" xmlns="http://www.w3.org/2000/svg">
<path d="M31.7759 16.224C36.6574 12.1887 38.0893 7.82791 38.4798 5.15937C39.9768 4.11799 40.888 3.20679 40.888 3.20679C40.888 3.20679 41.7341 10.3012 34.0539 16.6796C24.0957 25.0107 14.2026 30.2176 14.2026 30.2176L13.3565 28.9809C16.4156 27.2236 24.0957 22.6025 31.7759 16.224Z" fill="#96A7A8"/>
<path d="M13.2915 28.9809L12.5105 27.8093C28.3915 14.5317 28.717 8.41362 28.717 8.41362C32.8174 8.47871 36.267 6.65629 38.4799 5.09422C38.0894 7.69767 36.6575 12.0584 31.776 16.1589C24.0959 22.6024 16.4157 27.2235 13.2915 28.9809Z" fill="#B8C2C4"/>
<path d="M8.60538 30.4779C8.01961 30.9986 8.0847 31.9749 8.80064 32.6258C9.51659 33.2766 10.558 33.3417 11.1437 32.821C11.7295 32.3003 11.6644 31.324 10.9485 30.6732C10.2976 30.0223 9.19116 29.9572 8.60538 30.4779Z" fill="#C19A61"/>
<path d="M8.93021 30.543C8.40952 30.9986 8.47461 31.8447 9.12547 32.3654C9.71125 32.9512 10.6225 33.0163 11.1431 32.4956C11.6638 32.04 11.5993 31.1939 10.9485 30.6732C10.3627 30.1525 9.4509 30.0223 8.93021 30.543Z" fill="#DBB471"/>
<path d="M7.17336 31.7145C6.58759 32.2352 6.65267 33.2115 7.36862 33.8623C8.08457 34.5132 9.12595 34.5783 9.71172 34.0576C10.2975 33.5369 10.2324 32.5606 9.51647 31.9098C8.80052 31.2589 7.75914 31.1938 7.17336 31.7145Z" fill="#C19A61"/>
<path d="M7.49883 31.7146C6.97814 32.1702 7.04322 33.0164 7.69409 33.5371C8.27986 34.1228 9.19107 34.1879 9.71176 33.6672C10.2324 33.2116 10.1674 32.3655 9.5165 31.8448C8.93072 31.3241 8.01952 31.259 7.49883 31.7146Z" fill="#DBB471"/>
<path d="M5.74139 32.9513C5.09053 33.472 5.2207 34.4483 5.93665 35.0992C6.6526 35.75 7.69398 35.8151 8.27975 35.2944C8.86553 34.7738 8.80044 33.7975 8.0845 33.1466C7.36855 32.4957 6.32717 32.3656 5.74139 32.9513Z" fill="#C19A61"/>
<path d="M6.00133 32.9512C5.48064 33.4068 5.54573 34.2529 6.19659 34.7736C6.78237 35.3594 7.69358 35.4245 8.21427 34.9038C8.73496 34.4482 8.66987 33.6021 8.01901 33.0814C7.43323 32.5607 6.52202 32.4956 6.00133 32.9512Z" fill="#DBB471"/>
<path d="M4.24414 34.1228C3.65837 34.7086 3.78854 35.6198 4.4394 36.2707C5.15535 36.9215 6.19673 36.9866 6.7825 36.4659C7.36828 35.9452 7.30319 34.9689 6.58725 34.3181C5.93638 33.6672 4.895 33.6021 4.24414 34.1228Z" fill="#C19A61"/>
<path d="M4.56995 34.1879C4.04926 34.6435 4.11434 35.4896 4.76521 36.0103C5.35098 36.5961 6.26219 36.6611 6.78288 36.1405C7.30357 35.6849 7.23811 34.8388 6.58725 34.3181C6.00147 33.7323 5.09064 33.6672 4.56995 34.1879Z" fill="#DBB471"/>
<path d="M2.48706 35.6198C4.50473 33.8624 3.59353 35.0991 4.89525 36.4008C8.67025 40.306 15.0487 34.5133 10.753 31.1288C8.27973 29.1762 10.0371 26.6379 11.2737 25.5314C12.0547 24.8805 11.469 26.0521 13.747 28.7206C16.025 31.4542 14.9836 35.7499 11.9896 38.2883C8.86551 40.8917 5.09051 39.2646 3.65861 37.5073C2.61723 36.3357 0.859907 36.9215 2.48706 35.6198Z" fill="#89664C"/>
<path d="M7.69362 38.4185C8.735 38.4185 10.1669 38.0931 11.3384 36.9866C12.7053 35.6198 13.2259 33.9275 12.8354 32.2353C13.7466 34.1228 13.4863 36.1405 11.9893 37.5724C10.9479 38.6137 9.58112 38.809 8.60483 38.7439C7.7587 38.7439 6.91258 38.5487 6.13155 38.2232C6.65224 38.4185 7.17293 38.4836 7.69362 38.4185Z" fill="#DBB471"/>
<path d="M10.9479 16.224C6.06646 12.1236 4.63457 7.76282 4.24405 5.15937C2.74707 4.11799 1.83586 3.20679 1.83586 3.20679C1.83586 3.20679 1.05483 10.3012 8.66991 16.6796C18.6281 25.0107 28.5212 30.2176 28.5212 30.2176L29.3673 28.9809C26.3083 27.2236 18.6281 22.6025 10.9479 16.224Z" fill="#B0BFC1"/>
<path d="M29.4328 28.9809L30.2138 27.8094C14.3328 14.5318 14.0074 8.41368 14.0074 8.41368C9.90693 8.47877 6.45698 6.65636 4.24405 5.15937C4.63457 7.76282 6.06646 12.1236 10.9479 16.224C18.6281 22.6025 26.3087 27.2236 29.4328 28.9809Z" fill="#C9D1D3"/>
<path d="M34.119 30.4779C34.7048 30.9986 34.6397 31.9749 33.9238 32.6258C33.2078 33.2766 32.1665 33.3417 31.5807 32.821C30.9949 32.3003 31.06 31.324 31.7759 30.6732C32.4268 30.0223 33.5333 29.9572 34.119 30.4779Z" fill="#C19A61"/>
<path d="M33.7937 30.543C34.3143 30.9986 34.2493 31.8447 33.5984 32.3654C33.0126 32.9512 32.1014 33.0163 31.5807 32.4956C31.06 32.04 31.1251 31.1939 31.7759 30.6732C32.3617 30.1525 33.273 30.0223 33.7937 30.543Z" fill="#DBB471"/>
<path d="M35.5511 31.7145C36.1368 32.2352 36.0718 33.2115 35.3558 33.8623C34.6399 34.5132 33.5985 34.5783 33.0127 34.0576C32.4269 33.5369 32.492 32.5606 33.208 31.9098C33.9239 31.2589 34.9653 31.1938 35.5511 31.7145Z" fill="#C19A61"/>
<path d="M35.225 31.7146C35.7457 32.1702 35.6806 33.0164 35.0298 33.5371C34.444 34.1228 33.5328 34.1879 33.0121 33.6672C32.4914 33.2116 32.5565 32.3655 33.2074 31.8448C33.7931 31.3241 34.7043 31.259 35.225 31.7146Z" fill="#DBB471"/>
<path d="M36.9825 32.9513C37.5682 33.472 37.5032 34.4483 36.7872 35.0992C36.0713 35.75 35.0299 35.8151 34.4441 35.2944C33.8583 34.7738 33.9234 33.7975 34.6394 33.1466C35.3553 32.4957 36.3967 32.3656 36.9825 32.9513Z" fill="#C19A61"/>
<path d="M36.7225 32.9512C37.2432 33.4068 37.1781 34.2529 36.5273 34.7736C35.9415 35.3594 35.0303 35.4245 34.5096 34.9038C33.9889 34.4482 34.054 33.6021 34.7049 33.0814C35.2906 32.5607 36.2018 32.4956 36.7225 32.9512Z" fill="#DBB471"/>
<path d="M38.48 34.1228C39.0657 34.6435 39.0006 35.6198 38.2847 36.2707C37.5687 36.9215 36.5274 36.9866 35.9416 36.4659C35.3558 35.9452 35.4209 34.9689 36.1369 34.3181C36.7877 33.6672 37.8291 33.6021 38.48 34.1228Z" fill="#C19A61"/>
<path d="M38.1539 34.1879C38.6746 34.6435 38.6095 35.4896 37.9587 36.0103C37.3729 36.5961 36.4617 36.6611 35.941 36.1405C35.4203 35.6849 35.486 34.8388 36.1369 34.3181C36.7226 33.7323 37.6332 33.6672 38.1539 34.1879Z" fill="#DBB471"/>
<path d="M40.2367 35.6198C38.1539 33.9275 39.1302 35.0991 37.8285 36.4008C34.0535 40.306 27.6751 34.5133 31.9707 31.1288C34.444 29.1762 32.6867 26.6379 31.4501 25.5314C30.669 24.8805 31.2548 26.0521 28.9768 28.7206C26.6988 31.4542 27.7401 35.7499 30.7341 38.2883C33.8582 40.8917 37.6332 39.2646 39.0651 37.5073C40.1065 36.3357 41.8638 36.9215 40.2367 35.6198Z" fill="#89664C"/>
<path d="M35.03 38.4185C33.9887 38.4185 32.5568 38.0931 31.3852 36.9866C30.0184 35.6198 29.4977 33.9275 29.8882 32.2353C28.977 34.1228 29.2374 36.1405 30.7344 37.5724C31.7757 38.6137 33.1425 38.809 34.1188 38.7439C34.965 38.7439 35.8111 38.5487 36.5921 38.2232C36.0714 38.4185 35.5507 38.4836 35.03 38.4185Z" fill="#DBB471"/>
</svg>
