<svg width="43" height="43" viewBox="0 0 43 43" fill="none" xmlns="http://www.w3.org/2000/svg">
<path d="M11.0132 9.06665H27.9356V18.2438H11.0132V9.06665Z" fill="white"/>
<path opacity="0.8" d="M30.5391 16.6166C30.5391 16.6166 33.2076 15.3149 36.9175 15.7705C33.2727 14.0783 30.5391 15.38 30.5391 15.38V16.6166ZM30.5391 30.5451C30.5391 30.5451 33.0123 30.6102 35.5507 28.7877C33.8585 31.9119 30.5391 31.8468 30.5391 31.8468V30.5451Z" fill="white"/>
<path opacity="0.8" d="M39.3908 15.6404C38.8702 12.3861 31.971 13.6228 30.5391 13.8831V6.72363H8.34473V38.6159C8.34473 42.1305 30.5391 42.1305 30.5391 38.6159V33.0185C34.7046 32.8883 37.959 29.2435 38.8702 25.7288C39.521 23.2555 39.8464 18.2439 39.3908 15.6404ZM28.9771 36.1426C28.9771 39.0064 9.9068 39.0064 9.9068 36.1426V8.74131H28.9771V36.1426ZM36.0064 25.7288C35.4857 27.8766 33.3378 29.7642 30.6042 29.8292V17.0073C31.7107 16.7469 36.462 15.7055 36.7874 17.7883C37.0477 20.0663 36.5271 23.5159 36.0064 25.7288Z" fill="#A1B8C7"/>
<path d="M27.9356 18.2439H11.0132V35.2965C11.0132 37.8348 27.9356 37.8348 27.9356 35.2965V18.2439Z" fill="#FDB73E"/>
<path d="M28.9773 6.59358C28.9773 8.22073 26.9596 9.58754 24.4213 9.58754C21.8829 9.58754 19.8652 8.22073 19.8652 6.59358C19.8652 4.90133 21.8829 3.59961 24.4213 3.59961C26.9596 3.59961 28.9773 4.96642 28.9773 6.59358Z" fill="#D8D2B8"/>
<path d="M32.2971 7.89505C32.2971 9.26186 30.9303 10.4334 29.3032 10.4334C27.676 10.4334 26.3092 9.32695 26.3092 7.89505C26.3092 6.52824 27.676 5.35669 29.3032 5.35669C30.9303 5.42178 32.2971 6.52824 32.2971 7.89505ZM10.5584 16.161C10.5584 17.5278 9.32171 18.6343 7.75964 18.6343C6.19758 18.6343 4.96094 17.5278 4.96094 16.161C4.96094 14.7942 6.19758 13.6877 7.75964 13.6877C9.25663 13.6877 10.5584 14.7942 10.5584 16.161Z" fill="#D8D2B8"/>
<path d="M11.9248 19.4806C11.9248 20.8474 10.6882 21.9539 9.1261 21.9539C7.56403 21.9539 6.32739 20.8474 6.32739 19.4806C6.32739 18.1138 7.56403 17.0074 9.1261 17.0074C10.6882 17.0074 11.9248 18.1138 11.9248 19.4806ZM17.392 8.15564C17.392 10.8242 14.9188 13.0371 11.8597 13.0371C8.80067 13.0371 6.32739 10.8242 6.32739 8.15564C6.32739 5.4871 8.80067 3.27417 11.8597 3.27417C14.9839 3.27417 17.392 5.4871 17.392 8.15564Z" fill="#D8D2B8"/>
<path d="M12.3152 11.7353C12.3152 14.0784 10.2325 15.9659 7.69412 15.9659C5.15576 15.9659 3.073 14.0784 3.073 11.7353C3.073 9.39215 5.15576 7.50465 7.69412 7.50465C10.2976 7.50465 12.3152 9.39215 12.3152 11.7353ZM23.0545 5.81241C23.0545 7.76499 21.167 9.39215 18.8889 9.39215C16.6109 9.39215 14.7234 7.76499 14.7234 5.81241C14.7234 3.85982 16.6109 2.23267 18.8889 2.23267C21.232 2.23267 23.0545 3.85982 23.0545 5.81241Z" fill="#D8D2B8"/>
<path d="M28.7821 7.11432C28.7821 8.74148 26.8295 10.0432 24.4864 10.0432C22.1433 10.0432 20.1907 8.74148 20.1907 7.11432C20.1907 5.48717 22.1433 4.18544 24.4864 4.18544C26.8295 4.12036 28.7821 5.42208 28.7821 7.11432Z" fill="white"/>
<path d="M31.7112 8.02558C31.7112 9.26222 30.4095 10.2385 28.7823 10.2385C27.1552 10.2385 25.8534 9.26222 25.8534 8.02558C25.8534 6.78894 27.1552 5.81265 28.7823 5.81265C30.3444 5.81265 31.7112 6.78894 31.7112 8.02558ZM11.2741 16.0312C11.2741 17.3329 10.0375 18.3743 8.54051 18.3743C7.04352 18.3743 5.80688 17.3329 5.80688 16.0312C5.80688 14.7295 7.04352 13.6881 8.54051 13.6881C10.1026 13.6881 11.2741 14.7295 11.2741 16.0312ZM24.2914 9.06696C24.2914 10.3687 23.0547 11.4101 21.5577 11.4101C20.0608 11.4101 18.8241 10.3687 18.8241 9.06696C18.8241 7.76523 20.0608 6.72385 21.5577 6.72385C23.1198 6.72385 24.2914 7.76523 24.2914 9.06696ZM17.8478 8.61136C17.8478 11.1497 15.4396 13.2325 12.5108 13.2325C9.5168 13.2325 7.17369 11.1497 7.17369 8.61136C7.17369 6.07299 9.58188 3.99023 12.5108 3.99023C15.4396 3.99023 17.8478 6.07299 17.8478 8.61136Z" fill="white"/>
<path d="M12.9011 11.9307C12.9011 14.0785 10.8834 15.7708 8.41014 15.7708C5.93686 15.7708 3.91919 14.0135 3.91919 11.9307C3.91919 9.78286 5.93686 8.09062 8.41014 8.09062C10.8834 8.02553 12.9011 9.78286 12.9011 11.9307Z" fill="white"/>
<path d="M19.2146 15.3152C19.2146 17.4631 17.1969 19.1553 14.7236 19.1553C12.2503 19.1553 10.2327 17.398 10.2327 15.3152C10.2327 13.1674 12.2503 11.4751 14.7236 11.4751C17.1969 11.41 19.2146 13.1674 19.2146 15.3152ZM23.0546 6.3984C23.0546 8.2859 21.2973 9.78288 19.1495 9.78288C17.0016 9.78288 15.2443 8.2859 15.2443 6.3984C15.2443 4.5109 17.0016 3.01392 19.1495 3.01392C21.2973 3.01392 23.0546 4.5109 23.0546 6.3984Z" fill="white"/>
<path d="M12.4455 19.4808C12.4455 20.7825 11.2089 21.8239 9.71189 21.8239C8.21491 21.8239 6.97827 20.7825 6.97827 19.4808C6.97827 18.1791 8.21491 17.1377 9.71189 17.1377C11.2089 17.1377 12.4455 18.1791 12.4455 19.4808Z" fill="white"/>
<path d="M15.0487 18.2441C15.0487 19.4807 13.8771 20.5221 12.4452 20.5221C11.0133 20.5221 9.8418 19.4807 9.8418 18.2441C9.8418 17.0074 11.0133 15.9661 12.4452 15.9661C13.8771 15.9661 15.0487 17.0074 15.0487 18.2441Z" fill="white"/>
<path d="M17.3917 15.0547C17.1965 14.7944 16.871 14.534 16.5456 14.4038C16.4154 14.3388 16.2202 14.2737 16.0249 14.2737H15.2439L15.1788 14.0133C15.0486 13.6879 14.8534 13.4276 14.593 13.2323C14.4628 13.1021 14.3327 13.037 14.2025 12.9719C14.0723 12.9069 14.0072 12.9069 13.9422 12.8418C13.8771 12.8418 13.7469 12.7767 13.6818 12.7767C12.9659 12.6465 12.1848 12.7767 11.6641 13.2323L11.3387 13.4926L11.0784 13.2974C11.0133 13.2323 10.9482 13.1672 10.8831 13.1672L10.6228 13.037C10.4926 12.9719 10.2973 12.9069 10.1021 12.9069C9.71155 12.9069 9.32104 13.037 8.99561 13.2974C9.12578 12.9069 9.58138 12.5814 10.037 12.5163C10.2973 12.4513 10.5577 12.4513 10.818 12.5163C10.9482 12.5163 11.1435 12.5814 11.2085 12.6465L11.5991 12.8418H11.0784C11.6641 12.1258 12.9008 11.7353 13.9422 11.9957C14.0723 11.9957 14.2025 12.0607 14.3327 12.1258C14.4628 12.1909 14.593 12.256 14.6581 12.256C14.9185 12.3862 15.1137 12.5163 15.309 12.7116C15.6344 13.037 15.8947 13.4926 15.8947 13.9482L15.5693 13.6879C15.8297 13.6879 16.0249 13.753 16.2202 13.8181C16.3503 13.8832 16.4154 13.8832 16.4805 13.9482C16.5456 14.0133 16.6758 14.0784 16.7409 14.1435C17.1314 14.3388 17.3917 14.7293 17.3917 15.0547ZM19.7348 4.90126C19.3443 4.83617 18.9538 4.83617 18.6284 4.96635C18.5633 4.96635 18.4982 5.03143 18.368 5.03143C18.2378 5.09652 18.1728 5.09652 18.1728 5.1616C18.0426 5.22669 17.9124 5.35686 17.7822 5.42195L17.6521 5.55212L17.3266 5.48704C17.0012 5.35686 16.6107 5.29178 16.2202 5.29178C16.0249 5.29178 15.8297 5.35686 15.6995 5.35686C15.4391 5.42195 15.3741 5.48704 15.1788 5.55212C14.593 5.87755 14.2025 6.46333 14.2025 7.11419V7.50471H13.5516C13.4215 7.50471 13.4215 7.50471 13.2913 7.56979C13.096 7.63488 12.9659 7.69997 12.8357 7.83014C12.5753 8.0254 12.3801 8.41592 12.3801 8.80643C12.1848 8.481 12.1848 7.96031 12.4452 7.63488C12.5753 7.43962 12.7706 7.24436 12.9659 7.17928C13.031 7.11419 13.2262 7.0491 13.2913 7.0491C13.6167 6.85385 13.7469 6.78876 13.8771 6.78876L13.5516 7.17928C13.3564 6.26807 13.8771 5.29178 14.7883 4.83617C14.9835 4.706 15.309 4.64091 15.5042 4.57583C15.7646 4.51074 16.0249 4.51074 16.2853 4.51074C16.806 4.51074 17.3266 4.706 17.7172 4.96635L17.2616 5.03143C17.4568 4.90126 17.6521 4.83617 17.8473 4.706C17.9775 4.64091 18.0426 4.64091 18.1728 4.64091C18.2378 4.64091 18.4331 4.57583 18.4982 4.57583C18.9538 4.57583 19.4094 4.706 19.7348 4.90126Z" fill="#D8D2B8"/>
<path d="M22.5336 26.7052C24.5106 26.7052 26.1133 25.19 26.1133 23.3208C26.1133 21.4516 24.5106 19.9363 22.5336 19.9363C20.5566 19.9363 18.9539 21.4516 18.9539 23.3208C18.9539 25.19 20.5566 26.7052 22.5336 26.7052Z" fill="#FEE0AF"/>
<path d="M17.3917 31.3914C18.8655 31.3914 20.0602 30.255 20.0602 28.8531C20.0602 27.4512 18.8655 26.3147 17.3917 26.3147C15.9179 26.3147 14.7231 27.4512 14.7231 28.8531C14.7231 30.255 15.9179 31.3914 17.3917 31.3914Z" fill="#FEE0AF"/>
<path d="M22.6636 32.8886C23.6341 32.8886 24.4209 32.131 24.4209 31.1964C24.4209 30.2618 23.6341 29.5042 22.6636 29.5042C21.693 29.5042 20.9062 30.2618 20.9062 31.1964C20.9062 32.131 21.693 32.8886 22.6636 32.8886Z" fill="#FEE0AF"/>
<path d="M18.6934 35.8824C19.3764 35.8824 19.9301 35.3579 19.9301 34.7109C19.9301 34.0638 19.3764 33.5393 18.6934 33.5393C18.0104 33.5393 17.4568 34.0638 17.4568 34.7109C17.4568 35.3579 18.0104 35.8824 18.6934 35.8824Z" fill="#FEE0AF"/>
</svg>
