<svg width="1628" height="174" viewBox="0 0 1628 174" fill="none" xmlns="http://www.w3.org/2000/svg">
<path d="M121.75 66C121.75 73.5833 120.667 80.2083 118.5 85.875C116.333 91.4583 113.208 96.125 109.125 99.875C105.042 103.625 100.042 106.458 94.125 108.375C88.2917 110.208 81.6667 111.125 74.25 111.125C69.25 111.125 64.2917 111.292 59.375 111.625C54.5417 111.958 49.6667 112.25 44.75 112.5L12.75 114.25L40.125 99.625V98.875C40.125 88.7917 39.625 78.8333 38.625 69C37.625 59.1667 36.7917 49.2917 36.125 39.375L0.875 24C7.45833 24.1667 14 24.3333 20.5 24.5C27 24.6667 33.5417 24.75 40.125 24.75C45.375 24.75 50.5417 24.7083 55.625 24.625C60.7917 24.5417 65.9583 24.5 71.125 24.5C77.4583 24.5 83.6667 25.375 89.75 27.125C95.8333 28.7917 101.25 31.3333 106 34.75C110.75 38.1667 114.542 42.5 117.375 47.75C120.292 52.9167 121.75 59 121.75 66ZM99.875 67.75C99.875 63.25 99.375 59.125 98.375 55.375C97.375 51.5417 95.7917 48.2917 93.625 45.625C91.4583 42.875 88.6667 40.75 85.25 39.25C81.8333 37.6667 77.7083 36.875 72.875 36.875C70.9583 36.875 69.0417 36.9167 67.125 37C65.2917 37 63.4167 36.9583 61.5 36.875L58.25 99.75C60.1667 99.75 62 99.7917 63.75 99.875C65.5 99.875 67.2917 99.875 69.125 99.875V99.625C70.2917 99.7083 71.375 99.7917 72.375 99.875C73.375 99.875 74.4167 99.875 75.5 99.875C80.4167 99.875 84.4583 99 87.625 97.25C90.7917 95.4167 93.25 93.0417 95 90.125C96.8333 87.125 98.0833 83.7083 98.75 79.875C99.5 75.9583 99.875 71.9167 99.875 67.75ZM201.875 49C201.875 52.4167 200.833 55.25 198.75 57.5C196.667 59.6667 193.875 60.75 190.375 60.75C187.792 60.75 185.792 60.2917 184.375 59.375C182.958 58.375 181.75 57.2917 180.75 56.125C179.833 54.875 178.875 53.7917 177.875 52.875C176.958 51.875 175.625 51.375 173.875 51.375C170.792 51.375 168.333 52.375 166.5 54.375C164.667 56.2917 163.292 58.5833 162.375 61.25C162.292 61.4167 162.208 62.2083 162.125 63.625C162.125 65.0417 162.083 66.8333 162 69C161.917 71.1667 161.833 73.5417 161.75 76.125C161.667 78.7083 161.583 81.1667 161.5 83.5C161.417 85.8333 161.333 87.9167 161.25 89.75C161.167 91.5 161.125 92.6667 161.125 93.25L191.5 104.25L119.25 111.625C123.583 108.875 127.917 106.167 132.25 103.5C136.583 100.75 140.917 98.0417 145.25 95.375L140.625 51.75L112.75 44.25L163.125 33.25L162.875 44.75C166.375 42.3333 169.958 40.2917 173.625 38.625C177.375 36.875 181.5 36 186 36C187.5 36 189.042 36.1667 190.625 36.5C192.208 36.8333 193.708 37.3333 195.125 38C196.542 38.6667 197.792 39.5833 198.875 40.75C199.958 41.8333 200.75 43.1667 201.25 44.75C201.667 46.25 201.875 47.6667 201.875 49ZM286.875 109.625L252.625 116L253 104.75C252.083 105.917 250.917 106.958 249.5 107.875C248.083 108.708 246.542 109.417 244.875 110C243.292 110.5 241.667 110.875 240 111.125C238.333 111.375 236.75 111.5 235.25 111.5C224.833 111.5 217.333 109 212.75 104C208.167 99 205.875 91.4583 205.875 81.375C205.875 77.4583 205.917 73.625 206 69.875C206.083 66.125 206.167 62.3333 206.25 58.5C203 56.5833 199.708 54.7083 196.375 52.875C193.042 51.0417 189.75 49.1667 186.5 47.25L227 47C226.417 53 225.708 59.3333 224.875 66C224.125 72.5833 223.75 78.8333 223.75 84.75C223.75 90 224.917 93.8333 227.25 96.25C229.583 98.6667 233.375 99.875 238.625 99.875C241.292 99.875 243.958 99.125 246.625 97.625C249.292 96.125 251.417 94.3333 253 92.25L254.625 60.25L232.25 49.375L275.25 49L266.75 102.25L286.875 109.625ZM369.25 101.75L315 102.125L338.375 93.125V70.625C338.375 66.2083 337.25 62.7083 335 60.125C332.833 57.4583 329.5 56.125 325 56.125C322.75 56.125 320.333 56.5 317.75 57.25C315.25 58 313.375 59.4167 312.125 61.5L309.375 85.75C310.208 86.4167 311.5 87.25 313.25 88.25C315.083 89.25 316.958 90.25 318.875 91.25C321.042 92.4167 323.375 93.625 325.875 94.875L274.5 95.125L295.5 86.5L291.75 56.375C289.333 55.7083 286.542 54.9583 283.375 54.125C280.208 53.2083 277.167 52.2917 274.25 51.375C270.917 50.375 267.458 49.3333 263.875 48.25L313.5 40L312.875 47.625C315.792 46.4583 318.917 45.2917 322.25 44.125C325.583 42.9583 328.833 42.375 332 42.375C339.583 42.375 345.458 44.4167 349.625 48.5C353.792 52.5833 355.875 58.4583 355.875 66.125C355.875 68.0417 355.75 70.2083 355.5 72.625C355.333 74.9583 355.083 77.3333 354.75 79.75C354.417 82.1667 354.042 84.5833 353.625 87C353.292 89.3333 352.958 91.5 352.625 93.5L369.25 101.75ZM467.75 110.25L407.375 123.125L427.375 108.125L402 69.25L392.125 75.875L391.625 98.75L416.625 108.75L350 111.375L374.625 98.875L369.375 17.75L339.875 10.875L394.125 6.75L392.625 62.375L419.125 39.875L399.375 28.125H463.625L434.875 41.625L414.125 57.375L442.25 103.75L467.75 110.25ZM526.875 111.25L487.25 112.875L488.125 105.875C485.458 106.208 482.792 106.417 480.125 106.5C477.458 106.5 474.792 106.5 472.125 106.5C469.708 106.5 467.042 106.208 464.125 105.625C461.208 105.042 458.5 104.125 456 102.875C453.5 101.542 451.417 99.8333 449.75 97.75C448.083 95.6667 447.25 93.125 447.25 90.125C447.25 86.7917 448.042 83.9583 449.625 81.625C451.208 79.2917 453.208 77.4167 455.625 76C458.125 74.5833 460.875 73.5417 463.875 72.875C466.875 72.2083 469.792 71.875 472.625 71.875C476.125 71.875 479.542 72.0417 482.875 72.375C486.208 72.7083 489.583 73 493 73.25C493.167 72.1667 493.292 71.0833 493.375 70C493.458 68.8333 493.5 67.6667 493.5 66.5C493.5 64.25 493.292 62.0417 492.875 59.875C492.542 57.7083 491.875 55.7917 490.875 54.125C489.958 52.375 488.625 51 486.875 50C485.208 49 483.042 48.5 480.375 48.5C477.875 48.5 475.583 48.9167 473.5 49.75C471.5 50.5 469.708 51.8333 468.125 53.75C469.292 54.6667 470.083 55.7083 470.5 56.875C470.917 57.9583 471.125 59.2083 471.125 60.625V61.375C469.875 67.2083 466.208 70.125 460.125 70.125C457.375 70.125 455.125 69.1667 453.375 67.25C451.625 65.25 450.75 62.9167 450.75 60.25C450.75 56.5833 451.792 53.4167 453.875 50.75C455.958 48.0833 458.5 45.875 461.5 44.125C464.583 42.375 467.875 41.0833 471.375 40.25C474.958 39.4167 478.25 39 481.25 39C490.833 39 498.292 41.2083 503.625 45.625C509.042 50.0417 511.75 57.25 511.75 67.25C511.75 68.3333 511.708 69.4167 511.625 70.5C511.625 71.5833 511.583 72.6667 511.5 73.75L508.5 102.5C511.667 103.917 514.75 105.375 517.75 106.875C520.75 108.375 523.792 109.833 526.875 111.25ZM491.625 81.625C489.458 81.375 487.292 81.125 485.125 80.875C482.958 80.5417 480.792 80.375 478.625 80.375C477.208 80.375 475.792 80.5417 474.375 80.875C473.042 81.125 471.792 81.5833 470.625 82.25C469.542 82.9167 468.667 83.8333 468 85C467.333 86.0833 467 87.4583 467 89.125C467 90.375 467.292 91.5 467.875 92.5C468.458 93.4167 469.208 94.2083 470.125 94.875C471.125 95.5417 472.167 96.0417 473.25 96.375C474.417 96.7083 475.542 96.875 476.625 96.875C478.792 96.875 480.958 96.75 483.125 96.5C485.375 96.25 487.542 96 489.625 95.75L491.625 81.625ZM598.125 49C598.125 52.4167 597.083 55.25 595 57.5C592.917 59.6667 590.125 60.75 586.625 60.75C584.042 60.75 582.042 60.2917 580.625 59.375C579.208 58.375 578 57.2917 577 56.125C576.083 54.875 575.125 53.7917 574.125 52.875C573.208 51.875 571.875 51.375 570.125 51.375C567.042 51.375 564.583 52.375 562.75 54.375C560.917 56.2917 559.542 58.5833 558.625 61.25C558.542 61.4167 558.458 62.2083 558.375 63.625C558.375 65.0417 558.333 66.8333 558.25 69C558.167 71.1667 558.083 73.5417 558 76.125C557.917 78.7083 557.833 81.1667 557.75 83.5C557.667 85.8333 557.583 87.9167 557.5 89.75C557.417 91.5 557.375 92.6667 557.375 93.25L587.75 104.25L515.5 111.625C519.833 108.875 524.167 106.167 528.5 103.5C532.833 100.75 537.167 98.0417 541.5 95.375L536.875 51.75L509 44.25L559.375 33.25L559.125 44.75C562.625 42.3333 566.208 40.2917 569.875 38.625C573.625 36.875 577.75 36 582.25 36C583.75 36 585.292 36.1667 586.875 36.5C588.458 36.8333 589.958 37.3333 591.375 38C592.792 38.6667 594.042 39.5833 595.125 40.75C596.208 41.8333 597 43.1667 597.5 44.75C597.917 46.25 598.125 47.6667 598.125 49ZM694.625 125.125L651.375 131.125L652 120.25C649.583 120.833 647.125 121.25 644.625 121.5C642.125 121.75 639.625 121.875 637.125 121.875C632.208 121.875 627.25 121.292 622.25 120.125C617.333 119.042 612.875 117.25 608.875 114.75C604.958 112.25 601.75 109 599.25 105C596.75 101 595.5 96.125 595.5 90.375C595.5 85.7083 596.5 81.5417 598.5 77.875C600.5 74.125 603.125 70.9583 606.375 68.375C609.625 65.7083 613.292 63.6667 617.375 62.25C621.542 60.8333 625.792 60.125 630.125 60.125C634.375 60.125 638.625 60.5833 642.875 61.5C647.208 62.3333 651.25 63.625 655 65.375L657.25 22.25L629.625 9.125L681.125 12.75L667.625 118.75L694.625 125.125ZM654.25 77C651.833 75.3333 648.833 74.125 645.25 73.375C641.667 72.625 638.417 72.25 635.5 72.25C632.5 72.25 629.708 72.75 627.125 73.75C624.625 74.75 622.458 76.1667 620.625 78C618.875 79.8333 617.5 82.0417 616.5 84.625C615.5 87.125 615 89.875 615 92.875C615 96.125 615.792 98.9583 617.375 101.375C618.958 103.708 621 105.667 623.5 107.25C626 108.75 628.75 109.833 631.75 110.5C634.75 111.25 637.625 111.625 640.375 111.625C644.542 111.625 648.667 110.792 652.75 109.125L654.25 77ZM716.625 26.125L700.5 55.75L685.625 49.5L696.5 17.25L716.625 26.125ZM788.625 88.875C788.625 93.0417 787.667 96.4583 785.75 99.125C783.833 101.792 781.417 103.917 778.5 105.5C775.583 107 772.333 108.083 768.75 108.75C765.167 109.333 761.708 109.625 758.375 109.625C756.458 109.625 754.333 109.5 752 109.25C749.75 108.917 747.5 108.458 745.25 107.875C743 107.292 740.792 106.583 738.625 105.75C736.542 104.917 734.667 103.917 733 102.75L722.875 114.625L726.75 76.375C728.167 79.4583 729.958 82.375 732.125 85.125C734.375 87.875 736.917 90.2917 739.75 92.375C742.583 94.4583 745.625 96.125 748.875 97.375C752.125 98.5417 755.5 99.125 759 99.125C759.917 99.125 760.958 99.0833 762.125 99C763.375 98.8333 764.542 98.5417 765.625 98.125C766.792 97.7083 767.75 97.125 768.5 96.375C769.25 95.625 769.625 94.625 769.625 93.375C769.625 91.9583 768.875 90.6667 767.375 89.5C765.875 88.25 764.125 87.2083 762.125 86.375C760.125 85.4583 758.125 84.7083 756.125 84.125C754.125 83.4583 752.625 82.9583 751.625 82.625C748.792 81.7917 745.667 80.6667 742.25 79.25C738.917 77.75 735.792 76 732.875 74C730.042 71.9167 727.667 69.5 725.75 66.75C723.833 63.9167 722.875 60.6667 722.875 57C722.875 53.5 723.708 50.375 725.375 47.625C727.125 44.875 729.333 42.5833 732 40.75C734.667 38.8333 737.625 37.4167 740.875 36.5C744.208 35.5 747.458 35 750.625 35C755.625 35 760.333 35.9167 764.75 37.75C769.25 39.5 773.333 42.0417 777 45.375L784.75 30.375L783.125 69.875C781.625 67.0417 779.75 64.2083 777.5 61.375C775.25 58.4583 772.75 55.8333 770 53.5C767.25 51.1667 764.292 49.2917 761.125 47.875C757.958 46.4583 754.667 45.75 751.25 45.75C750.25 45.75 749.083 45.875 747.75 46.125C746.5 46.2917 745.292 46.625 744.125 47.125C743.042 47.625 742.083 48.3333 741.25 49.25C740.5 50.0833 740.125 51.1667 740.125 52.5C740.125 54.0833 740.708 55.4583 741.875 56.625C743.125 57.7917 744.583 58.8333 746.25 59.75C748 60.5833 749.75 61.3333 751.5 62C753.333 62.5833 754.833 63.0417 756 63.375C759 64.375 762.375 65.5417 766.125 66.875C769.875 68.2083 773.417 69.8333 776.75 71.75C780.083 73.6667 782.875 76.0417 785.125 78.875C787.458 81.625 788.625 84.9583 788.625 88.875ZM926.375 51.875C926.375 54.9583 925.292 57.6667 923.125 60C920.958 62.25 918.125 64.25 914.625 66C911.208 67.6667 907.375 69.0833 903.125 70.25C898.958 71.4167 894.792 72.375 890.625 73.125C886.542 73.875 882.708 74.4583 879.125 74.875C875.625 75.2083 872.833 75.4167 870.75 75.5L871.75 101L900.75 113L821.875 114L848.75 99.875L847.625 41.25L818.125 27.875L878.25 29.5C880.5 29.5833 883.25 29.75 886.5 30C889.833 30.25 893.25 30.7083 896.75 31.375C900.333 31.9583 903.875 32.7917 907.375 33.875C910.958 34.875 914.125 36.2083 916.875 37.875C919.708 39.4583 922 41.4167 923.75 43.75C925.5 46 926.375 48.7083 926.375 51.875ZM909.125 51.875C909.125 50.375 908.542 49.0833 907.375 48C906.208 46.8333 904.708 45.875 902.875 45.125C901.042 44.2917 899 43.625 896.75 43.125C894.5 42.5417 892.292 42.125 890.125 41.875C887.958 41.5417 885.958 41.3333 884.125 41.25C882.375 41.0833 881 41 880 41C878.083 41 876.125 41.0417 874.125 41.125C872.125 41.2083 870.167 41.3333 868.25 41.5L868.875 64.5C869.958 64.6667 870.958 64.75 871.875 64.75C872.875 64.75 873.875 64.75 874.875 64.75C876.042 64.75 877.667 64.7083 879.75 64.625C881.917 64.4583 884.25 64.2083 886.75 63.875C889.333 63.4583 891.917 62.9583 894.5 62.375C897.167 61.7083 899.583 60.9167 901.75 60C903.917 59 905.667 57.8333 907 56.5C908.417 55.1667 909.125 53.625 909.125 51.875ZM974.875 117.625L918 119.75L939.375 106.125L935.25 11.625L905.875 0.75L958.75 0.125L955 105.5L974.875 117.625ZM1046.75 111.25L1007.12 112.875L1008 105.875C1005.33 106.208 1002.67 106.417 1000 106.5C997.333 106.5 994.667 106.5 992 106.5C989.583 106.5 986.917 106.208 984 105.625C981.083 105.042 978.375 104.125 975.875 102.875C973.375 101.542 971.292 99.8333 969.625 97.75C967.958 95.6667 967.125 93.125 967.125 90.125C967.125 86.7917 967.917 83.9583 969.5 81.625C971.083 79.2917 973.083 77.4167 975.5 76C978 74.5833 980.75 73.5417 983.75 72.875C986.75 72.2083 989.667 71.875 992.5 71.875C996 71.875 999.417 72.0417 1002.75 72.375C1006.08 72.7083 1009.46 73 1012.88 73.25C1013.04 72.1667 1013.17 71.0833 1013.25 70C1013.33 68.8333 1013.38 67.6667 1013.38 66.5C1013.38 64.25 1013.17 62.0417 1012.75 59.875C1012.42 57.7083 1011.75 55.7917 1010.75 54.125C1009.83 52.375 1008.5 51 1006.75 50C1005.08 49 1002.92 48.5 1000.25 48.5C997.75 48.5 995.458 48.9167 993.375 49.75C991.375 50.5 989.583 51.8333 988 53.75C989.167 54.6667 989.958 55.7083 990.375 56.875C990.792 57.9583 991 59.2083 991 60.625V61.375C989.75 67.2083 986.083 70.125 980 70.125C977.25 70.125 975 69.1667 973.25 67.25C971.5 65.25 970.625 62.9167 970.625 60.25C970.625 56.5833 971.667 53.4167 973.75 50.75C975.833 48.0833 978.375 45.875 981.375 44.125C984.458 42.375 987.75 41.0833 991.25 40.25C994.833 39.4167 998.125 39 1001.12 39C1010.71 39 1018.17 41.2083 1023.5 45.625C1028.92 50.0417 1031.62 57.25 1031.62 67.25C1031.62 68.3333 1031.58 69.4167 1031.5 70.5C1031.5 71.5833 1031.46 72.6667 1031.38 73.75L1028.38 102.5C1031.54 103.917 1034.62 105.375 1037.62 106.875C1040.62 108.375 1043.67 109.833 1046.75 111.25ZM1011.5 81.625C1009.33 81.375 1007.17 81.125 1005 80.875C1002.83 80.5417 1000.67 80.375 998.5 80.375C997.083 80.375 995.667 80.5417 994.25 80.875C992.917 81.125 991.667 81.5833 990.5 82.25C989.417 82.9167 988.542 83.8333 987.875 85C987.208 86.0833 986.875 87.4583 986.875 89.125C986.875 90.375 987.167 91.5 987.75 92.5C988.333 93.4167 989.083 94.2083 990 94.875C991 95.5417 992.042 96.0417 993.125 96.375C994.292 96.7083 995.417 96.875 996.5 96.875C998.667 96.875 1000.83 96.75 1003 96.5C1005.25 96.25 1007.42 96 1009.5 95.75L1011.5 81.625ZM1117.88 51L1114.75 125.5C1114.5 131.75 1113.5 137.458 1111.75 142.625C1110 147.792 1107.46 152.208 1104.12 155.875C1100.88 159.625 1096.75 162.5 1091.75 164.5C1086.83 166.5 1081.08 167.5 1074.5 167.5C1070.83 167.5 1067.12 166.958 1063.38 165.875C1059.62 164.792 1056.21 163.167 1053.12 161C1050.12 158.917 1047.67 156.333 1045.75 153.25C1043.83 150.167 1042.88 146.583 1042.88 142.5C1042.88 139.333 1043.88 136.708 1045.88 134.625C1047.88 132.625 1050.46 131.625 1053.62 131.625C1056.29 131.625 1058.54 132.625 1060.38 134.625C1062.21 136.625 1063.12 138.917 1063.12 141.5C1063.12 143.167 1062.58 144.708 1061.5 146.125C1060.5 147.542 1059.29 148.583 1057.88 149.25C1059.71 151.667 1062.08 153.5 1065 154.75C1067.92 156 1070.83 156.625 1073.75 156.625C1078.08 156.625 1081.54 155.542 1084.12 153.375C1086.79 151.208 1088.83 148.5 1090.25 145.25C1091.67 142 1092.62 138.458 1093.12 134.625C1093.71 130.875 1094.12 127.333 1094.38 124C1094.54 120.583 1094.62 117.208 1094.62 113.875C1094.71 110.625 1094.83 107.333 1095 104C1091.08 105 1087.42 105.875 1084 106.625C1080.67 107.292 1077 107.625 1073 107.625C1068.92 107.625 1065 107.167 1061.25 106.25C1057.58 105.333 1054.33 103.875 1051.5 101.875C1048.75 99.875 1046.54 97.2917 1044.88 94.125C1043.21 90.9583 1042.38 87.125 1042.38 82.625C1042.38 81.375 1042.58 79.7083 1043 77.625C1043.5 75.4583 1044.04 73.25 1044.62 71C1045.29 68.75 1045.96 66.5833 1046.62 64.5C1047.29 62.4167 1047.79 60.8333 1048.12 59.75L1030.25 40L1073.12 54.75C1072.62 56.1667 1071.92 58.2083 1071 60.875C1070.17 63.5417 1069.29 66.3333 1068.38 69.25C1067.46 72.0833 1066.67 74.8333 1066 77.5C1065.33 80.0833 1065 82 1065 83.25C1065 85.3333 1065.5 87.125 1066.5 88.625C1067.5 90.125 1068.75 91.375 1070.25 92.375C1071.83 93.375 1073.54 94.125 1075.38 94.625C1077.29 95.0417 1079.17 95.25 1081 95.25C1083.17 95.25 1085.58 95.0417 1088.25 94.625C1091 94.2083 1093.42 93.5417 1095.5 92.625L1095.75 61.5L1072 46.125L1117.88 51ZM1204.5 42.5C1204.5 44 1204.21 45.4583 1203.62 46.875C1203.04 48.2917 1202.25 49.5833 1201.25 50.75C1200.25 51.8333 1199.08 52.75 1197.75 53.5C1196.42 54.1667 1195 54.5 1193.5 54.5C1190.42 54.5 1187.92 53.4167 1186 51.25C1184.17 49.0833 1183.25 46.5417 1183.25 43.625V43.125C1182.83 43.0417 1182.38 43.3333 1181.88 44C1181.46 44.5833 1181 45.2917 1180.5 46.125C1180.08 46.9583 1179.67 47.7917 1179.25 48.625C1178.92 49.375 1178.67 49.9167 1178.5 50.25C1183.5 53.0833 1187.46 56.875 1190.38 61.625C1193.38 66.2917 1194.88 71.5 1194.88 77.25C1194.88 81.75 1193.92 85.9583 1192 89.875C1190.17 93.7917 1187.67 97.2083 1184.5 100.125C1181.42 102.958 1177.83 105.208 1173.75 106.875C1169.67 108.458 1165.42 109.25 1161 109.25C1159.33 109.25 1157.67 109.208 1156 109.125C1154.33 108.958 1152.67 108.667 1151 108.25C1149.83 109 1149.25 109.875 1149.25 110.875C1149.25 111.875 1150.04 112.625 1151.62 113.125C1153.29 113.708 1155.12 114.125 1157.12 114.375C1159.21 114.625 1161.21 114.792 1163.12 114.875C1165.12 114.958 1166.46 115 1167.12 115C1171.62 115.25 1176 116.042 1180.25 117.375C1184.5 118.708 1188.25 120.625 1191.5 123.125C1194.83 125.708 1197.46 128.875 1199.38 132.625C1201.38 136.375 1202.38 140.75 1202.38 145.75C1202.38 151 1201.04 155.417 1198.38 159C1195.71 162.583 1192.33 165.458 1188.25 167.625C1184.25 169.792 1179.83 171.333 1175 172.25C1170.25 173.25 1165.75 173.75 1161.5 173.75C1157.17 173.75 1152.58 173.25 1147.75 172.25C1143 171.333 1138.58 169.792 1134.5 167.625C1130.5 165.458 1127.17 162.583 1124.5 159C1121.83 155.417 1120.5 151 1120.5 145.75C1120.5 140.5 1121.96 136.167 1124.88 132.75C1127.79 129.333 1131.46 126.458 1135.88 124.125C1133.71 123.208 1131.83 122 1130.25 120.5C1128.67 119 1127.88 117 1127.88 114.5C1127.88 113 1128.17 111.625 1128.75 110.375C1129.42 109.208 1130.25 108.208 1131.25 107.375C1132.33 106.458 1133.5 105.708 1134.75 105.125C1136.08 104.458 1137.38 103.917 1138.62 103.5C1134.12 100.583 1130.5 96.875 1127.75 92.375C1125 87.7917 1123.62 82.75 1123.62 77.25C1123.62 72.5 1124.62 68.1667 1126.62 64.25C1128.62 60.25 1131.29 56.8333 1134.62 54C1137.96 51.1667 1141.75 48.9583 1146 47.375C1150.33 45.7917 1154.75 45 1159.25 45C1162.25 45 1165.33 45.375 1168.5 46.125C1169.42 44.125 1170.5 42.1667 1171.75 40.25C1173 38.25 1174.42 36.4583 1176 34.875C1177.58 33.2917 1179.38 32 1181.38 31C1183.38 30 1185.58 29.5 1188 29.5C1189.83 29.5 1191.71 29.7917 1193.62 30.375C1195.62 30.9583 1197.42 31.8333 1199 33C1200.58 34.0833 1201.88 35.4167 1202.88 37C1203.96 38.5833 1204.5 40.4167 1204.5 42.5ZM1175.88 77.25C1175.88 74.9167 1175.54 72.4167 1174.88 69.75C1174.21 67 1173.17 64.5 1171.75 62.25C1170.42 60 1168.71 58.125 1166.62 56.625C1164.54 55.125 1162.08 54.375 1159.25 54.375C1156.42 54.375 1153.96 55.125 1151.88 56.625C1149.79 58.125 1148.04 60 1146.62 62.25C1145.21 64.5 1144.12 66.9583 1143.38 69.625C1142.71 72.2917 1142.38 74.8333 1142.38 77.25C1142.38 79.6667 1142.71 82.25 1143.38 85C1144.12 87.6667 1145.17 90.125 1146.5 92.375C1147.92 94.625 1149.67 96.5 1151.75 98C1153.92 99.5 1156.42 100.25 1159.25 100.25C1162.08 100.25 1164.54 99.5 1166.62 98C1168.71 96.5 1170.42 94.625 1171.75 92.375C1173.17 90.0417 1174.21 87.5417 1174.88 84.875C1175.54 82.2083 1175.88 79.6667 1175.88 77.25ZM1182.88 145.75C1182.88 142.667 1182.29 140 1181.12 137.75C1179.96 135.5 1178.38 133.625 1176.38 132.125C1174.38 130.625 1172.08 129.5 1169.5 128.75C1166.92 128.083 1164.25 127.75 1161.5 127.75C1158.75 127.75 1156.08 128.083 1153.5 128.75C1150.92 129.5 1148.62 130.625 1146.62 132.125C1144.71 133.625 1143.17 135.5 1142 137.75C1140.83 140 1140.25 142.667 1140.25 145.75C1140.25 148.833 1140.83 151.5 1142 153.75C1143.17 156 1144.71 157.833 1146.62 159.25C1148.62 160.75 1150.92 161.833 1153.5 162.5C1156.08 163.25 1158.75 163.625 1161.5 163.625C1164.25 163.625 1166.92 163.25 1169.5 162.5C1172.08 161.833 1174.38 160.75 1176.38 159.25C1178.38 157.833 1179.96 156 1181.12 153.75C1182.29 151.5 1182.88 148.833 1182.88 145.75ZM1278.25 49C1278.25 52.4167 1277.21 55.25 1275.12 57.5C1273.04 59.6667 1270.25 60.75 1266.75 60.75C1264.17 60.75 1262.17 60.2917 1260.75 59.375C1259.33 58.375 1258.12 57.2917 1257.12 56.125C1256.21 54.875 1255.25 53.7917 1254.25 52.875C1253.33 51.875 1252 51.375 1250.25 51.375C1247.17 51.375 1244.71 52.375 1242.88 54.375C1241.04 56.2917 1239.67 58.5833 1238.75 61.25C1238.67 61.4167 1238.58 62.2083 1238.5 63.625C1238.5 65.0417 1238.46 66.8333 1238.38 69C1238.29 71.1667 1238.21 73.5417 1238.12 76.125C1238.04 78.7083 1237.96 81.1667 1237.88 83.5C1237.79 85.8333 1237.71 87.9167 1237.62 89.75C1237.54 91.5 1237.5 92.6667 1237.5 93.25L1267.88 104.25L1195.62 111.625C1199.96 108.875 1204.29 106.167 1208.62 103.5C1212.96 100.75 1217.29 98.0417 1221.62 95.375L1217 51.75L1189.12 44.25L1239.5 33.25L1239.25 44.75C1242.75 42.3333 1246.33 40.2917 1250 38.625C1253.75 36.875 1257.88 36 1262.38 36C1263.88 36 1265.42 36.1667 1267 36.5C1268.58 36.8333 1270.08 37.3333 1271.5 38C1272.92 38.6667 1274.17 39.5833 1275.25 40.75C1276.33 41.8333 1277.12 43.1667 1277.62 44.75C1278.04 46.25 1278.25 47.6667 1278.25 49ZM1360.88 79.75C1360.88 85.5 1359.42 90.375 1356.5 94.375C1353.67 98.2917 1350 101.5 1345.5 104C1341.08 106.417 1336.25 108.208 1331 109.375C1325.75 110.458 1320.75 111 1316 111C1311.33 111 1306.46 110.417 1301.38 109.25C1296.38 108.083 1291.75 106.25 1287.5 103.75C1283.33 101.25 1279.88 98.0417 1277.12 94.125C1274.46 90.125 1273.12 85.3333 1273.12 79.75C1273.12 73.6667 1274.58 68.625 1277.5 64.625C1280.42 60.625 1284.08 57.4583 1288.5 55.125C1293 52.7917 1297.92 51.1667 1303.25 50.25C1308.67 49.3333 1313.88 48.875 1318.88 48.875C1323.46 48.875 1328.21 49.4583 1333.12 50.625C1338.12 51.7917 1342.67 53.625 1346.75 56.125C1350.92 58.5417 1354.29 61.7083 1356.88 65.625C1359.54 69.5417 1360.88 74.25 1360.88 79.75ZM1340.25 79.5C1340.25 76.5 1339.67 73.75 1338.5 71.25C1337.42 68.75 1335.88 66.5833 1333.88 64.75C1331.96 62.9167 1329.71 61.5 1327.12 60.5C1324.54 59.5 1321.79 59 1318.88 59C1315.88 59 1312.88 59.4583 1309.88 60.375C1306.88 61.2083 1304.17 62.4583 1301.75 64.125C1299.33 65.7917 1297.38 67.9167 1295.88 70.5C1294.38 73 1293.62 75.875 1293.62 79.125C1293.62 82.375 1294.12 85.3333 1295.12 88C1296.21 90.6667 1297.71 92.9583 1299.62 94.875C1301.62 96.7917 1303.96 98.2917 1306.62 99.375C1309.29 100.375 1312.25 100.875 1315.5 100.875C1319 100.875 1322.25 100.5 1325.25 99.75C1328.25 98.9167 1330.88 97.625 1333.12 95.875C1335.38 94.125 1337.12 91.9167 1338.38 89.25C1339.62 86.5 1340.25 83.25 1340.25 79.5ZM1451 109.625L1416.75 116L1417.12 104.75C1416.21 105.917 1415.04 106.958 1413.62 107.875C1412.21 108.708 1410.67 109.417 1409 110C1407.42 110.5 1405.79 110.875 1404.12 111.125C1402.46 111.375 1400.88 111.5 1399.38 111.5C1388.96 111.5 1381.46 109 1376.88 104C1372.29 99 1370 91.4583 1370 81.375C1370 77.4583 1370.04 73.625 1370.12 69.875C1370.21 66.125 1370.29 62.3333 1370.38 58.5C1367.12 56.5833 1363.83 54.7083 1360.5 52.875C1357.17 51.0417 1353.88 49.1667 1350.62 47.25L1391.12 47C1390.54 53 1389.83 59.3333 1389 66C1388.25 72.5833 1387.88 78.8333 1387.88 84.75C1387.88 90 1389.04 93.8333 1391.38 96.25C1393.71 98.6667 1397.5 99.875 1402.75 99.875C1405.42 99.875 1408.08 99.125 1410.75 97.625C1413.42 96.125 1415.54 94.3333 1417.12 92.25L1418.75 60.25L1396.38 49.375L1439.38 49L1430.88 102.25L1451 109.625ZM1533.38 101.75L1479.12 102.125L1502.5 93.125V70.625C1502.5 66.2083 1501.38 62.7083 1499.12 60.125C1496.96 57.4583 1493.62 56.125 1489.12 56.125C1486.88 56.125 1484.46 56.5 1481.88 57.25C1479.38 58 1477.5 59.4167 1476.25 61.5L1473.5 85.75C1474.33 86.4167 1475.62 87.25 1477.38 88.25C1479.21 89.25 1481.08 90.25 1483 91.25C1485.17 92.4167 1487.5 93.625 1490 94.875L1438.62 95.125L1459.62 86.5L1455.88 56.375C1453.46 55.7083 1450.67 54.9583 1447.5 54.125C1444.33 53.2083 1441.29 52.2917 1438.38 51.375C1435.04 50.375 1431.58 49.3333 1428 48.25L1477.62 40L1477 47.625C1479.92 46.4583 1483.04 45.2917 1486.38 44.125C1489.71 42.9583 1492.96 42.375 1496.12 42.375C1503.71 42.375 1509.58 44.4167 1513.75 48.5C1517.92 52.5833 1520 58.4583 1520 66.125C1520 68.0417 1519.88 70.2083 1519.62 72.625C1519.46 74.9583 1519.21 77.3333 1518.88 79.75C1518.54 82.1667 1518.17 84.5833 1517.75 87C1517.42 89.3333 1517.08 91.5 1516.75 93.5L1533.38 101.75ZM1627.38 125.125L1584.12 131.125L1584.75 120.25C1582.33 120.833 1579.88 121.25 1577.38 121.5C1574.88 121.75 1572.38 121.875 1569.88 121.875C1564.96 121.875 1560 121.292 1555 120.125C1550.08 119.042 1545.62 117.25 1541.62 114.75C1537.71 112.25 1534.5 109 1532 105C1529.5 101 1528.25 96.125 1528.25 90.375C1528.25 85.7083 1529.25 81.5417 1531.25 77.875C1533.25 74.125 1535.88 70.9583 1539.12 68.375C1542.38 65.7083 1546.04 63.6667 1550.12 62.25C1554.29 60.8333 1558.54 60.125 1562.88 60.125C1567.12 60.125 1571.38 60.5833 1575.62 61.5C1579.96 62.3333 1584 63.625 1587.75 65.375L1590 22.25L1562.38 9.125L1613.88 12.75L1600.38 118.75L1627.38 125.125ZM1587 77C1584.58 75.3333 1581.58 74.125 1578 73.375C1574.42 72.625 1571.17 72.25 1568.25 72.25C1565.25 72.25 1562.46 72.75 1559.88 73.75C1557.38 74.75 1555.21 76.1667 1553.38 78C1551.62 79.8333 1550.25 82.0417 1549.25 84.625C1548.25 87.125 1547.75 89.875 1547.75 92.875C1547.75 96.125 1548.54 98.9583 1550.12 101.375C1551.71 103.708 1553.75 105.667 1556.25 107.25C1558.75 108.75 1561.5 109.833 1564.5 110.5C1567.5 111.25 1570.38 111.625 1573.12 111.625C1577.29 111.625 1581.42 110.792 1585.5 109.125L1587 77Z" fill="#000"/>
</svg>
