<svg width="813" height="309" viewBox="0 0 813 309" fill="none" xmlns="http://www.w3.org/2000/svg">
<path d="M121.75 60C121.75 67.5833 120.667 74.2083 118.5 79.875C116.333 85.4583 113.208 90.125 109.125 93.875C105.042 97.625 100.042 100.458 94.125 102.375C88.2917 104.208 81.6667 105.125 74.25 105.125C69.25 105.125 64.2917 105.292 59.375 105.625C54.5417 105.958 49.6667 106.25 44.75 106.5L12.75 108.25L40.125 93.625V92.875C40.125 82.7917 39.625 72.8333 38.625 63C37.625 53.1667 36.7917 43.2917 36.125 33.375L0.875 18C7.45833 18.1667 14 18.3333 20.5 18.5C27 18.6667 33.5417 18.75 40.125 18.75C45.375 18.75 50.5417 18.7083 55.625 18.625C60.7917 18.5417 65.9583 18.5 71.125 18.5C77.4583 18.5 83.6667 19.375 89.75 21.125C95.8333 22.7917 101.25 25.3333 106 28.75C110.75 32.1667 114.542 36.5 117.375 41.75C120.292 46.9167 121.75 53 121.75 60ZM99.875 61.75C99.875 57.25 99.375 53.125 98.375 49.375C97.375 45.5417 95.7917 42.2917 93.625 39.625C91.4583 36.875 88.6667 34.75 85.25 33.25C81.8333 31.6667 77.7083 30.875 72.875 30.875C70.9583 30.875 69.0417 30.9167 67.125 31C65.2917 31 63.4167 30.9583 61.5 30.875L58.25 93.75C60.1667 93.75 62 93.7917 63.75 93.875C65.5 93.875 67.2917 93.875 69.125 93.875V93.625C70.2917 93.7083 71.375 93.7917 72.375 93.875C73.375 93.875 74.4167 93.875 75.5 93.875C80.4167 93.875 84.4583 93 87.625 91.25C90.7917 89.4167 93.25 87.0417 95 84.125C96.8333 81.125 98.0833 77.7083 98.75 73.875C99.5 69.9583 99.875 65.9167 99.875 61.75ZM201.875 43C201.875 46.4167 200.833 49.25 198.75 51.5C196.667 53.6667 193.875 54.75 190.375 54.75C187.792 54.75 185.792 54.2917 184.375 53.375C182.958 52.375 181.75 51.2917 180.75 50.125C179.833 48.875 178.875 47.7917 177.875 46.875C176.958 45.875 175.625 45.375 173.875 45.375C170.792 45.375 168.333 46.375 166.5 48.375C164.667 50.2917 163.292 52.5833 162.375 55.25C162.292 55.4167 162.208 56.2083 162.125 57.625C162.125 59.0417 162.083 60.8333 162 63C161.917 65.1667 161.833 67.5417 161.75 70.125C161.667 72.7083 161.583 75.1667 161.5 77.5C161.417 79.8333 161.333 81.9167 161.25 83.75C161.167 85.5 161.125 86.6667 161.125 87.25L191.5 98.25L119.25 105.625C123.583 102.875 127.917 100.167 132.25 97.5C136.583 94.75 140.917 92.0417 145.25 89.375L140.625 45.75L112.75 38.25L163.125 27.25L162.875 38.75C166.375 36.3333 169.958 34.2917 173.625 32.625C177.375 30.875 181.5 30 186 30C187.5 30 189.042 30.1667 190.625 30.5C192.208 30.8333 193.708 31.3333 195.125 32C196.542 32.6667 197.792 33.5833 198.875 34.75C199.958 35.8333 200.75 37.1667 201.25 38.75C201.667 40.25 201.875 41.6667 201.875 43ZM286.875 103.625L252.625 110L253 98.75C252.083 99.9167 250.917 100.958 249.5 101.875C248.083 102.708 246.542 103.417 244.875 104C243.292 104.5 241.667 104.875 240 105.125C238.333 105.375 236.75 105.5 235.25 105.5C224.833 105.5 217.333 103 212.75 98C208.167 93 205.875 85.4583 205.875 75.375C205.875 71.4583 205.917 67.625 206 63.875C206.083 60.125 206.167 56.3333 206.25 52.5C203 50.5833 199.708 48.7083 196.375 46.875C193.042 45.0417 189.75 43.1667 186.5 41.25L227 41C226.417 47 225.708 53.3333 224.875 60C224.125 66.5833 223.75 72.8333 223.75 78.75C223.75 84 224.917 87.8333 227.25 90.25C229.583 92.6667 233.375 93.875 238.625 93.875C241.292 93.875 243.958 93.125 246.625 91.625C249.292 90.125 251.417 88.3333 253 86.25L254.625 54.25L232.25 43.375L275.25 43L266.75 96.25L286.875 103.625ZM369.25 95.75L315 96.125L338.375 87.125V64.625C338.375 60.2083 337.25 56.7083 335 54.125C332.833 51.4583 329.5 50.125 325 50.125C322.75 50.125 320.333 50.5 317.75 51.25C315.25 52 313.375 53.4167 312.125 55.5L309.375 79.75C310.208 80.4167 311.5 81.25 313.25 82.25C315.083 83.25 316.958 84.25 318.875 85.25C321.042 86.4167 323.375 87.625 325.875 88.875L274.5 89.125L295.5 80.5L291.75 50.375C289.333 49.7083 286.542 48.9583 283.375 48.125C280.208 47.2083 277.167 46.2917 274.25 45.375C270.917 44.375 267.458 43.3333 263.875 42.25L313.5 34L312.875 41.625C315.792 40.4583 318.917 39.2917 322.25 38.125C325.583 36.9583 328.833 36.375 332 36.375C339.583 36.375 345.458 38.4167 349.625 42.5C353.792 46.5833 355.875 52.4583 355.875 60.125C355.875 62.0417 355.75 64.2083 355.5 66.625C355.333 68.9583 355.083 71.3333 354.75 73.75C354.417 76.1667 354.042 78.5833 353.625 81C353.292 83.3333 352.958 85.5 352.625 87.5L369.25 95.75ZM467.75 104.25L407.375 117.125L427.375 102.125L402 63.25L392.125 69.875L391.625 92.75L416.625 102.75L350 105.375L374.625 92.875L369.375 11.75L339.875 4.875L394.125 0.75L392.625 56.375L419.125 33.875L399.375 22.125H463.625L434.875 35.625L414.125 51.375L442.25 97.75L467.75 104.25ZM526.875 105.25L487.25 106.875L488.125 99.875C485.458 100.208 482.792 100.417 480.125 100.5C477.458 100.5 474.792 100.5 472.125 100.5C469.708 100.5 467.042 100.208 464.125 99.625C461.208 99.0417 458.5 98.125 456 96.875C453.5 95.5417 451.417 93.8333 449.75 91.75C448.083 89.6667 447.25 87.125 447.25 84.125C447.25 80.7917 448.042 77.9583 449.625 75.625C451.208 73.2917 453.208 71.4167 455.625 70C458.125 68.5833 460.875 67.5417 463.875 66.875C466.875 66.2083 469.792 65.875 472.625 65.875C476.125 65.875 479.542 66.0417 482.875 66.375C486.208 66.7083 489.583 67 493 67.25C493.167 66.1667 493.292 65.0833 493.375 64C493.458 62.8333 493.5 61.6667 493.5 60.5C493.5 58.25 493.292 56.0417 492.875 53.875C492.542 51.7083 491.875 49.7917 490.875 48.125C489.958 46.375 488.625 45 486.875 44C485.208 43 483.042 42.5 480.375 42.5C477.875 42.5 475.583 42.9167 473.5 43.75C471.5 44.5 469.708 45.8333 468.125 47.75C469.292 48.6667 470.083 49.7083 470.5 50.875C470.917 51.9583 471.125 53.2083 471.125 54.625V55.375C469.875 61.2083 466.208 64.125 460.125 64.125C457.375 64.125 455.125 63.1667 453.375 61.25C451.625 59.25 450.75 56.9167 450.75 54.25C450.75 50.5833 451.792 47.4167 453.875 44.75C455.958 42.0833 458.5 39.875 461.5 38.125C464.583 36.375 467.875 35.0833 471.375 34.25C474.958 33.4167 478.25 33 481.25 33C490.833 33 498.292 35.2083 503.625 39.625C509.042 44.0417 511.75 51.25 511.75 61.25C511.75 62.3333 511.708 63.4167 511.625 64.5C511.625 65.5833 511.583 66.6667 511.5 67.75L508.5 96.5C511.667 97.9167 514.75 99.375 517.75 100.875C520.75 102.375 523.792 103.833 526.875 105.25ZM491.625 75.625C489.458 75.375 487.292 75.125 485.125 74.875C482.958 74.5417 480.792 74.375 478.625 74.375C477.208 74.375 475.792 74.5417 474.375 74.875C473.042 75.125 471.792 75.5833 470.625 76.25C469.542 76.9167 468.667 77.8333 468 79C467.333 80.0833 467 81.4583 467 83.125C467 84.375 467.292 85.5 467.875 86.5C468.458 87.4167 469.208 88.2083 470.125 88.875C471.125 89.5417 472.167 90.0417 473.25 90.375C474.417 90.7083 475.542 90.875 476.625 90.875C478.792 90.875 480.958 90.75 483.125 90.5C485.375 90.25 487.542 90 489.625 89.75L491.625 75.625ZM598.125 43C598.125 46.4167 597.083 49.25 595 51.5C592.917 53.6667 590.125 54.75 586.625 54.75C584.042 54.75 582.042 54.2917 580.625 53.375C579.208 52.375 578 51.2917 577 50.125C576.083 48.875 575.125 47.7917 574.125 46.875C573.208 45.875 571.875 45.375 570.125 45.375C567.042 45.375 564.583 46.375 562.75 48.375C560.917 50.2917 559.542 52.5833 558.625 55.25C558.542 55.4167 558.458 56.2083 558.375 57.625C558.375 59.0417 558.333 60.8333 558.25 63C558.167 65.1667 558.083 67.5417 558 70.125C557.917 72.7083 557.833 75.1667 557.75 77.5C557.667 79.8333 557.583 81.9167 557.5 83.75C557.417 85.5 557.375 86.6667 557.375 87.25L587.75 98.25L515.5 105.625C519.833 102.875 524.167 100.167 528.5 97.5C532.833 94.75 537.167 92.0417 541.5 89.375L536.875 45.75L509 38.25L559.375 27.25L559.125 38.75C562.625 36.3333 566.208 34.2917 569.875 32.625C573.625 30.875 577.75 30 582.25 30C583.75 30 585.292 30.1667 586.875 30.5C588.458 30.8333 589.958 31.3333 591.375 32C592.792 32.6667 594.042 33.5833 595.125 34.75C596.208 35.8333 597 37.1667 597.5 38.75C597.917 40.25 598.125 41.6667 598.125 43ZM694.625 119.125L651.375 125.125L652 114.25C649.583 114.833 647.125 115.25 644.625 115.5C642.125 115.75 639.625 115.875 637.125 115.875C632.208 115.875 627.25 115.292 622.25 114.125C617.333 113.042 612.875 111.25 608.875 108.75C604.958 106.25 601.75 103 599.25 99C596.75 95 595.5 90.125 595.5 84.375C595.5 79.7083 596.5 75.5417 598.5 71.875C600.5 68.125 603.125 64.9583 606.375 62.375C609.625 59.7083 613.292 57.6667 617.375 56.25C621.542 54.8333 625.792 54.125 630.125 54.125C634.375 54.125 638.625 54.5833 642.875 55.5C647.208 56.3333 651.25 57.625 655 59.375L657.25 16.25L629.625 3.125L681.125 6.75L667.625 112.75L694.625 119.125ZM654.25 71C651.833 69.3333 648.833 68.125 645.25 67.375C641.667 66.625 638.417 66.25 635.5 66.25C632.5 66.25 629.708 66.75 627.125 67.75C624.625 68.75 622.458 70.1667 620.625 72C618.875 73.8333 617.5 76.0417 616.5 78.625C615.5 81.125 615 83.875 615 86.875C615 90.125 615.792 92.9583 617.375 95.375C618.958 97.7083 621 99.6667 623.5 101.25C626 102.75 628.75 103.833 631.75 104.5C634.75 105.25 637.625 105.625 640.375 105.625C644.542 105.625 648.667 104.792 652.75 103.125L654.25 71ZM716.625 20.125L700.5 49.75L685.625 43.5L696.5 11.25L716.625 20.125ZM788.625 82.875C788.625 87.0417 787.667 90.4583 785.75 93.125C783.833 95.7917 781.417 97.9167 778.5 99.5C775.583 101 772.333 102.083 768.75 102.75C765.167 103.333 761.708 103.625 758.375 103.625C756.458 103.625 754.333 103.5 752 103.25C749.75 102.917 747.5 102.458 745.25 101.875C743 101.292 740.792 100.583 738.625 99.75C736.542 98.9167 734.667 97.9167 733 96.75L722.875 108.625L726.75 70.375C728.167 73.4583 729.958 76.375 732.125 79.125C734.375 81.875 736.917 84.2917 739.75 86.375C742.583 88.4583 745.625 90.125 748.875 91.375C752.125 92.5417 755.5 93.125 759 93.125C759.917 93.125 760.958 93.0833 762.125 93C763.375 92.8333 764.542 92.5417 765.625 92.125C766.792 91.7083 767.75 91.125 768.5 90.375C769.25 89.625 769.625 88.625 769.625 87.375C769.625 85.9583 768.875 84.6667 767.375 83.5C765.875 82.25 764.125 81.2083 762.125 80.375C760.125 79.4583 758.125 78.7083 756.125 78.125C754.125 77.4583 752.625 76.9583 751.625 76.625C748.792 75.7917 745.667 74.6667 742.25 73.25C738.917 71.75 735.792 70 732.875 68C730.042 65.9167 727.667 63.5 725.75 60.75C723.833 57.9167 722.875 54.6667 722.875 51C722.875 47.5 723.708 44.375 725.375 41.625C727.125 38.875 729.333 36.5833 732 34.75C734.667 32.8333 737.625 31.4167 740.875 30.5C744.208 29.5 747.458 29 750.625 29C755.625 29 760.333 29.9167 764.75 31.75C769.25 33.5 773.333 36.0417 777 39.375L784.75 24.375L783.125 63.875C781.625 61.0417 779.75 58.2083 777.5 55.375C775.25 52.4583 772.75 49.8333 770 47.5C767.25 45.1667 764.292 43.2917 761.125 41.875C757.958 40.4583 754.667 39.75 751.25 39.75C750.25 39.75 749.083 39.875 747.75 40.125C746.5 40.2917 745.292 40.625 744.125 41.125C743.042 41.625 742.083 42.3333 741.25 43.25C740.5 44.0833 740.125 45.1667 740.125 46.5C740.125 48.0833 740.708 49.4583 741.875 50.625C743.125 51.7917 744.583 52.8333 746.25 53.75C748 54.5833 749.75 55.3333 751.5 56C753.333 56.5833 754.833 57.0417 756 57.375C759 58.375 762.375 59.5417 766.125 60.875C769.875 62.2083 773.417 63.8333 776.75 65.75C780.083 67.6667 782.875 70.0417 785.125 72.875C787.458 75.625 788.625 78.9583 788.625 82.875ZM111.75 186.875C111.75 189.958 110.667 192.667 108.5 195C106.333 197.25 103.5 199.25 100 201C96.5833 202.667 92.75 204.083 88.5 205.25C84.3333 206.417 80.1667 207.375 76 208.125C71.9167 208.875 68.0833 209.458 64.5 209.875C61 210.208 58.2083 210.417 56.125 210.5L57.125 236L86.125 248L7.25 249L34.125 234.875L33 176.25L3.5 162.875L63.625 164.5C65.875 164.583 68.625 164.75 71.875 165C75.2083 165.25 78.625 165.708 82.125 166.375C85.7083 166.958 89.25 167.792 92.75 168.875C96.3333 169.875 99.5 171.208 102.25 172.875C105.083 174.458 107.375 176.417 109.125 178.75C110.875 181 111.75 183.708 111.75 186.875ZM94.5 186.875C94.5 185.375 93.9167 184.083 92.75 183C91.5833 181.833 90.0833 180.875 88.25 180.125C86.4167 179.292 84.375 178.625 82.125 178.125C79.875 177.542 77.6667 177.125 75.5 176.875C73.3333 176.542 71.3333 176.333 69.5 176.25C67.75 176.083 66.375 176 65.375 176C63.4583 176 61.5 176.042 59.5 176.125C57.5 176.208 55.5417 176.333 53.625 176.5L54.25 199.5C55.3333 199.667 56.3333 199.75 57.25 199.75C58.25 199.75 59.25 199.75 60.25 199.75C61.4167 199.75 63.0417 199.708 65.125 199.625C67.2917 199.458 69.625 199.208 72.125 198.875C74.7083 198.458 77.2917 197.958 79.875 197.375C82.5417 196.708 84.9583 195.917 87.125 195C89.2917 194 91.0417 192.833 92.375 191.5C93.7917 190.167 94.5 188.625 94.5 186.875ZM160.25 252.625L103.375 254.75L124.75 241.125L120.625 146.625L91.25 135.75L144.125 135.125L140.375 240.5L160.25 252.625ZM232.125 246.25L192.5 247.875L193.375 240.875C190.708 241.208 188.042 241.417 185.375 241.5C182.708 241.5 180.042 241.5 177.375 241.5C174.958 241.5 172.292 241.208 169.375 240.625C166.458 240.042 163.75 239.125 161.25 237.875C158.75 236.542 156.667 234.833 155 232.75C153.333 230.667 152.5 228.125 152.5 225.125C152.5 221.792 153.292 218.958 154.875 216.625C156.458 214.292 158.458 212.417 160.875 211C163.375 209.583 166.125 208.542 169.125 207.875C172.125 207.208 175.042 206.875 177.875 206.875C181.375 206.875 184.792 207.042 188.125 207.375C191.458 207.708 194.833 208 198.25 208.25C198.417 207.167 198.542 206.083 198.625 205C198.708 203.833 198.75 202.667 198.75 201.5C198.75 199.25 198.542 197.042 198.125 194.875C197.792 192.708 197.125 190.792 196.125 189.125C195.208 187.375 193.875 186 192.125 185C190.458 184 188.292 183.5 185.625 183.5C183.125 183.5 180.833 183.917 178.75 184.75C176.75 185.5 174.958 186.833 173.375 188.75C174.542 189.667 175.333 190.708 175.75 191.875C176.167 192.958 176.375 194.208 176.375 195.625V196.375C175.125 202.208 171.458 205.125 165.375 205.125C162.625 205.125 160.375 204.167 158.625 202.25C156.875 200.25 156 197.917 156 195.25C156 191.583 157.042 188.417 159.125 185.75C161.208 183.083 163.75 180.875 166.75 179.125C169.833 177.375 173.125 176.083 176.625 175.25C180.208 174.417 183.5 174 186.5 174C196.083 174 203.542 176.208 208.875 180.625C214.292 185.042 217 192.25 217 202.25C217 203.333 216.958 204.417 216.875 205.5C216.875 206.583 216.833 207.667 216.75 208.75L213.75 237.5C216.917 238.917 220 240.375 223 241.875C226 243.375 229.042 244.833 232.125 246.25ZM196.875 216.625C194.708 216.375 192.542 216.125 190.375 215.875C188.208 215.542 186.042 215.375 183.875 215.375C182.458 215.375 181.042 215.542 179.625 215.875C178.292 216.125 177.042 216.583 175.875 217.25C174.792 217.917 173.917 218.833 173.25 220C172.583 221.083 172.25 222.458 172.25 224.125C172.25 225.375 172.542 226.5 173.125 227.5C173.708 228.417 174.458 229.208 175.375 229.875C176.375 230.542 177.417 231.042 178.5 231.375C179.667 231.708 180.792 231.875 181.875 231.875C184.042 231.875 186.208 231.75 188.375 231.5C190.625 231.25 192.792 231 194.875 230.75L196.875 216.625ZM303.25 186L300.125 260.5C299.875 266.75 298.875 272.458 297.125 277.625C295.375 282.792 292.833 287.208 289.5 290.875C286.25 294.625 282.125 297.5 277.125 299.5C272.208 301.5 266.458 302.5 259.875 302.5C256.208 302.5 252.5 301.958 248.75 300.875C245 299.792 241.583 298.167 238.5 296C235.5 293.917 233.042 291.333 231.125 288.25C229.208 285.167 228.25 281.583 228.25 277.5C228.25 274.333 229.25 271.708 231.25 269.625C233.25 267.625 235.833 266.625 239 266.625C241.667 266.625 243.917 267.625 245.75 269.625C247.583 271.625 248.5 273.917 248.5 276.5C248.5 278.167 247.958 279.708 246.875 281.125C245.875 282.542 244.667 283.583 243.25 284.25C245.083 286.667 247.458 288.5 250.375 289.75C253.292 291 256.208 291.625 259.125 291.625C263.458 291.625 266.917 290.542 269.5 288.375C272.167 286.208 274.208 283.5 275.625 280.25C277.042 277 278 273.458 278.5 269.625C279.083 265.875 279.5 262.333 279.75 259C279.917 255.583 280 252.208 280 248.875C280.083 245.625 280.208 242.333 280.375 239C276.458 240 272.792 240.875 269.375 241.625C266.042 242.292 262.375 242.625 258.375 242.625C254.292 242.625 250.375 242.167 246.625 241.25C242.958 240.333 239.708 238.875 236.875 236.875C234.125 234.875 231.917 232.292 230.25 229.125C228.583 225.958 227.75 222.125 227.75 217.625C227.75 216.375 227.958 214.708 228.375 212.625C228.875 210.458 229.417 208.25 230 206C230.667 203.75 231.333 201.583 232 199.5C232.667 197.417 233.167 195.833 233.5 194.75L215.625 175L258.5 189.75C258 191.167 257.292 193.208 256.375 195.875C255.542 198.542 254.667 201.333 253.75 204.25C252.833 207.083 252.042 209.833 251.375 212.5C250.708 215.083 250.375 217 250.375 218.25C250.375 220.333 250.875 222.125 251.875 223.625C252.875 225.125 254.125 226.375 255.625 227.375C257.208 228.375 258.917 229.125 260.75 229.625C262.667 230.042 264.542 230.25 266.375 230.25C268.542 230.25 270.958 230.042 273.625 229.625C276.375 229.208 278.792 228.542 280.875 227.625L281.125 196.5L257.375 181.125L303.25 186ZM389.875 177.5C389.875 179 389.583 180.458 389 181.875C388.417 183.292 387.625 184.583 386.625 185.75C385.625 186.833 384.458 187.75 383.125 188.5C381.792 189.167 380.375 189.5 378.875 189.5C375.792 189.5 373.292 188.417 371.375 186.25C369.542 184.083 368.625 181.542 368.625 178.625V178.125C368.208 178.042 367.75 178.333 367.25 179C366.833 179.583 366.375 180.292 365.875 181.125C365.458 181.958 365.042 182.792 364.625 183.625C364.292 184.375 364.042 184.917 363.875 185.25C368.875 188.083 372.833 191.875 375.75 196.625C378.75 201.292 380.25 206.5 380.25 212.25C380.25 216.75 379.292 220.958 377.375 224.875C375.542 228.792 373.042 232.208 369.875 235.125C366.792 237.958 363.208 240.208 359.125 241.875C355.042 243.458 350.792 244.25 346.375 244.25C344.708 244.25 343.042 244.208 341.375 244.125C339.708 243.958 338.042 243.667 336.375 243.25C335.208 244 334.625 244.875 334.625 245.875C334.625 246.875 335.417 247.625 337 248.125C338.667 248.708 340.5 249.125 342.5 249.375C344.583 249.625 346.583 249.792 348.5 249.875C350.5 249.958 351.833 250 352.5 250C357 250.25 361.375 251.042 365.625 252.375C369.875 253.708 373.625 255.625 376.875 258.125C380.208 260.708 382.833 263.875 384.75 267.625C386.75 271.375 387.75 275.75 387.75 280.75C387.75 286 386.417 290.417 383.75 294C381.083 297.583 377.708 300.458 373.625 302.625C369.625 304.792 365.208 306.333 360.375 307.25C355.625 308.25 351.125 308.75 346.875 308.75C342.542 308.75 337.958 308.25 333.125 307.25C328.375 306.333 323.958 304.792 319.875 302.625C315.875 300.458 312.542 297.583 309.875 294C307.208 290.417 305.875 286 305.875 280.75C305.875 275.5 307.333 271.167 310.25 267.75C313.167 264.333 316.833 261.458 321.25 259.125C319.083 258.208 317.208 257 315.625 255.5C314.042 254 313.25 252 313.25 249.5C313.25 248 313.542 246.625 314.125 245.375C314.792 244.208 315.625 243.208 316.625 242.375C317.708 241.458 318.875 240.708 320.125 240.125C321.458 239.458 322.75 238.917 324 238.5C319.5 235.583 315.875 231.875 313.125 227.375C310.375 222.792 309 217.75 309 212.25C309 207.5 310 203.167 312 199.25C314 195.25 316.667 191.833 320 189C323.333 186.167 327.125 183.958 331.375 182.375C335.708 180.792 340.125 180 344.625 180C347.625 180 350.708 180.375 353.875 181.125C354.792 179.125 355.875 177.167 357.125 175.25C358.375 173.25 359.792 171.458 361.375 169.875C362.958 168.292 364.75 167 366.75 166C368.75 165 370.958 164.5 373.375 164.5C375.208 164.5 377.083 164.792 379 165.375C381 165.958 382.792 166.833 384.375 168C385.958 169.083 387.25 170.417 388.25 172C389.333 173.583 389.875 175.417 389.875 177.5ZM361.25 212.25C361.25 209.917 360.917 207.417 360.25 204.75C359.583 202 358.542 199.5 357.125 197.25C355.792 195 354.083 193.125 352 191.625C349.917 190.125 347.458 189.375 344.625 189.375C341.792 189.375 339.333 190.125 337.25 191.625C335.167 193.125 333.417 195 332 197.25C330.583 199.5 329.5 201.958 328.75 204.625C328.083 207.292 327.75 209.833 327.75 212.25C327.75 214.667 328.083 217.25 328.75 220C329.5 222.667 330.542 225.125 331.875 227.375C333.292 229.625 335.042 231.5 337.125 233C339.292 234.5 341.792 235.25 344.625 235.25C347.458 235.25 349.917 234.5 352 233C354.083 231.5 355.792 229.625 357.125 227.375C358.542 225.042 359.583 222.542 360.25 219.875C360.917 217.208 361.25 214.667 361.25 212.25ZM368.25 280.75C368.25 277.667 367.667 275 366.5 272.75C365.333 270.5 363.75 268.625 361.75 267.125C359.75 265.625 357.458 264.5 354.875 263.75C352.292 263.083 349.625 262.75 346.875 262.75C344.125 262.75 341.458 263.083 338.875 263.75C336.292 264.5 334 265.625 332 267.125C330.083 268.625 328.542 270.5 327.375 272.75C326.208 275 325.625 277.667 325.625 280.75C325.625 283.833 326.208 286.5 327.375 288.75C328.542 291 330.083 292.833 332 294.25C334 295.75 336.292 296.833 338.875 297.5C341.458 298.25 344.125 298.625 346.875 298.625C349.625 298.625 352.292 298.25 354.875 297.5C357.458 296.833 359.75 295.75 361.75 294.25C363.75 292.833 365.333 291 366.5 288.75C367.667 286.5 368.25 283.833 368.25 280.75ZM463.625 184C463.625 187.417 462.583 190.25 460.5 192.5C458.417 194.667 455.625 195.75 452.125 195.75C449.542 195.75 447.542 195.292 446.125 194.375C444.708 193.375 443.5 192.292 442.5 191.125C441.583 189.875 440.625 188.792 439.625 187.875C438.708 186.875 437.375 186.375 435.625 186.375C432.542 186.375 430.083 187.375 428.25 189.375C426.417 191.292 425.042 193.583 424.125 196.25C424.042 196.417 423.958 197.208 423.875 198.625C423.875 200.042 423.833 201.833 423.75 204C423.667 206.167 423.583 208.542 423.5 211.125C423.417 213.708 423.333 216.167 423.25 218.5C423.167 220.833 423.083 222.917 423 224.75C422.917 226.5 422.875 227.667 422.875 228.25L453.25 239.25L381 246.625C385.333 243.875 389.667 241.167 394 238.5C398.333 235.75 402.667 233.042 407 230.375L402.375 186.75L374.5 179.25L424.875 168.25L424.625 179.75C428.125 177.333 431.708 175.292 435.375 173.625C439.125 171.875 443.25 171 447.75 171C449.25 171 450.792 171.167 452.375 171.5C453.958 171.833 455.458 172.333 456.875 173C458.292 173.667 459.542 174.583 460.625 175.75C461.708 176.833 462.5 178.167 463 179.75C463.417 181.25 463.625 182.667 463.625 184ZM546.25 214.75C546.25 220.5 544.792 225.375 541.875 229.375C539.042 233.292 535.375 236.5 530.875 239C526.458 241.417 521.625 243.208 516.375 244.375C511.125 245.458 506.125 246 501.375 246C496.708 246 491.833 245.417 486.75 244.25C481.75 243.083 477.125 241.25 472.875 238.75C468.708 236.25 465.25 233.042 462.5 229.125C459.833 225.125 458.5 220.333 458.5 214.75C458.5 208.667 459.958 203.625 462.875 199.625C465.792 195.625 469.458 192.458 473.875 190.125C478.375 187.792 483.292 186.167 488.625 185.25C494.042 184.333 499.25 183.875 504.25 183.875C508.833 183.875 513.583 184.458 518.5 185.625C523.5 186.792 528.042 188.625 532.125 191.125C536.292 193.542 539.667 196.708 542.25 200.625C544.917 204.542 546.25 209.25 546.25 214.75ZM525.625 214.5C525.625 211.5 525.042 208.75 523.875 206.25C522.792 203.75 521.25 201.583 519.25 199.75C517.333 197.917 515.083 196.5 512.5 195.5C509.917 194.5 507.167 194 504.25 194C501.25 194 498.25 194.458 495.25 195.375C492.25 196.208 489.542 197.458 487.125 199.125C484.708 200.792 482.75 202.917 481.25 205.5C479.75 208 479 210.875 479 214.125C479 217.375 479.5 220.333 480.5 223C481.583 225.667 483.083 227.958 485 229.875C487 231.792 489.333 233.292 492 234.375C494.667 235.375 497.625 235.875 500.875 235.875C504.375 235.875 507.625 235.5 510.625 234.75C513.625 233.917 516.25 232.625 518.5 230.875C520.75 229.125 522.5 226.917 523.75 224.25C525 221.5 525.625 218.25 525.625 214.5ZM636.375 244.625L602.125 251L602.5 239.75C601.583 240.917 600.417 241.958 599 242.875C597.583 243.708 596.042 244.417 594.375 245C592.792 245.5 591.167 245.875 589.5 246.125C587.833 246.375 586.25 246.5 584.75 246.5C574.333 246.5 566.833 244 562.25 239C557.667 234 555.375 226.458 555.375 216.375C555.375 212.458 555.417 208.625 555.5 204.875C555.583 201.125 555.667 197.333 555.75 193.5C552.5 191.583 549.208 189.708 545.875 187.875C542.542 186.042 539.25 184.167 536 182.25L576.5 182C575.917 188 575.208 194.333 574.375 201C573.625 207.583 573.25 213.833 573.25 219.75C573.25 225 574.417 228.833 576.75 231.25C579.083 233.667 582.875 234.875 588.125 234.875C590.792 234.875 593.458 234.125 596.125 232.625C598.792 231.125 600.917 229.333 602.5 227.25L604.125 195.25L581.75 184.375L624.75 184L616.25 237.25L636.375 244.625ZM718.75 236.75L664.5 237.125L687.875 228.125V205.625C687.875 201.208 686.75 197.708 684.5 195.125C682.333 192.458 679 191.125 674.5 191.125C672.25 191.125 669.833 191.5 667.25 192.25C664.75 193 662.875 194.417 661.625 196.5L658.875 220.75C659.708 221.417 661 222.25 662.75 223.25C664.583 224.25 666.458 225.25 668.375 226.25C670.542 227.417 672.875 228.625 675.375 229.875L624 230.125L645 221.5L641.25 191.375C638.833 190.708 636.042 189.958 632.875 189.125C629.708 188.208 626.667 187.292 623.75 186.375C620.417 185.375 616.958 184.333 613.375 183.25L663 175L662.375 182.625C665.292 181.458 668.417 180.292 671.75 179.125C675.083 177.958 678.333 177.375 681.5 177.375C689.083 177.375 694.958 179.417 699.125 183.5C703.292 187.583 705.375 193.458 705.375 201.125C705.375 203.042 705.25 205.208 705 207.625C704.833 209.958 704.583 212.333 704.25 214.75C703.917 217.167 703.542 219.583 703.125 222C702.792 224.333 702.458 226.5 702.125 228.5L718.75 236.75ZM812.75 260.125L769.5 266.125L770.125 255.25C767.708 255.833 765.25 256.25 762.75 256.5C760.25 256.75 757.75 256.875 755.25 256.875C750.333 256.875 745.375 256.292 740.375 255.125C735.458 254.042 731 252.25 727 249.75C723.083 247.25 719.875 244 717.375 240C714.875 236 713.625 231.125 713.625 225.375C713.625 220.708 714.625 216.542 716.625 212.875C718.625 209.125 721.25 205.958 724.5 203.375C727.75 200.708 731.417 198.667 735.5 197.25C739.667 195.833 743.917 195.125 748.25 195.125C752.5 195.125 756.75 195.583 761 196.5C765.333 197.333 769.375 198.625 773.125 200.375L775.375 157.25L747.75 144.125L799.25 147.75L785.75 253.75L812.75 260.125ZM772.375 212C769.958 210.333 766.958 209.125 763.375 208.375C759.792 207.625 756.542 207.25 753.625 207.25C750.625 207.25 747.833 207.75 745.25 208.75C742.75 209.75 740.583 211.167 738.75 213C737 214.833 735.625 217.042 734.625 219.625C733.625 222.125 733.125 224.875 733.125 227.875C733.125 231.125 733.917 233.958 735.5 236.375C737.083 238.708 739.125 240.667 741.625 242.25C744.125 243.75 746.875 244.833 749.875 245.5C752.875 246.25 755.75 246.625 758.5 246.625C762.667 246.625 766.792 245.792 770.875 244.125L772.375 212Z" fill="#000"/>
</svg>
