<svg width="47" height="48" viewBox="0 0 47 48" fill="none" xmlns="http://www.w3.org/2000/svg">
<g clip-path="url(#clip0_1_148)">
<path d="M38.083 2.23077C33.6571 3.20707 25.7166 11.6032 25.1308 13.2303H22.0718C21.4209 11.5381 13.4804 3.14198 9.05453 2.23077C7.23212 1.84026 6.71143 1.38465 6.71143 4.83422V10.7571C6.71143 20.3898 17.3856 19.6739 21.8114 14.9877H25.261C29.6869 19.6739 40.361 20.3898 40.361 10.7571V4.83422C40.361 1.44974 39.9054 1.84026 38.083 2.23077ZM39.5149 31.5196C39.3847 30.8687 38.7989 30.4782 38.2132 30.6084H38.1481C38.1481 30.6084 38.0179 30.6084 37.8226 30.6734C37.6274 30.7385 37.3019 30.7385 36.8463 30.8687C36.0653 31.064 34.8937 31.2592 33.5269 31.5847C32.811 31.7148 32.095 31.845 31.314 32.0403C30.533 32.1704 29.6869 32.3657 28.9058 32.4959C28.0597 32.626 27.2136 32.7562 26.3675 32.8213C25.9119 32.8864 25.5864 32.8864 25.1308 32.9515C24.7403 33.0166 24.2196 32.9515 23.764 33.0166H22.5274C22.0718 32.9515 21.6813 32.9515 21.2256 32.8864C20.3795 32.8213 19.5334 32.6911 18.6873 32.5609C17.8412 32.4308 17.0601 32.3006 16.2791 32.1053C15.4981 31.9752 14.7821 31.845 14.0662 31.6497C12.6994 31.3894 11.5278 31.129 10.7468 30.9338C10.3563 30.8687 10.0308 30.8036 9.77048 30.7385C9.57522 30.6734 9.44505 30.6734 9.44505 30.6734H9.37996C8.92436 30.6084 8.46875 30.7385 8.20841 31.1291C7.81789 31.6497 7.94806 32.3657 8.46875 32.7562C8.46875 32.7562 8.59893 32.8213 8.79418 32.9515C8.98944 33.0816 9.24979 33.2769 9.64031 33.4722C10.2912 33.8627 11.1373 34.3183 12.1787 34.839C18.3619 39.2648 20.0541 42.389 20.9653 45.3178C21.7463 47.9213 25.3261 47.9213 26.1722 45.3178C27.0183 42.5191 28.7106 39.4601 34.308 35.2946L34.6985 35.0993C36.0653 34.5135 37.1718 33.8627 37.8877 33.4071C38.2782 33.2118 38.5386 33.0166 38.7338 32.8864C38.9291 32.7562 39.0593 32.6911 39.0593 32.6911C39.3847 32.4308 39.58 31.9752 39.5149 31.5196Z" fill="#FF473E"/>
<path d="M38.0835 2.23066C39.4503 1.97031 40.036 1.64488 40.2964 2.88152C40.2313 2.29574 40.1011 1.70997 40.1011 1.70997C39.7757 1.0591 38.9296 0.733673 38.0835 1.0591C37.3024 1.18928 36.8468 1.90522 36.9119 2.55609C37.3024 2.42591 37.6929 2.29574 38.0835 2.23066ZM25.1313 13.1651C25.2615 12.7746 25.9123 11.8634 26.8886 10.822C26.2378 10.6919 25.5218 11.0173 25.1313 11.6682C24.871 12.1888 24.871 12.7095 25.0011 13.1651H25.1313ZM22.0072 13.1651H22.1373C22.3326 12.7095 22.3326 12.1238 22.0723 11.6682C21.6817 10.9522 20.9658 10.6268 20.3149 10.822C21.2261 11.8634 21.877 12.7746 22.0072 13.1651ZM42.3141 30.2177C42.4442 31.4544 41.5981 32.6259 40.2964 33.0164C38.9947 33.4069 37.6279 32.8212 37.1072 31.7147C37.1072 32.9513 36.196 34.0578 34.8291 34.3182C33.4623 34.5785 32.2257 33.8626 31.7701 32.7561C31.6399 33.9927 30.6636 35.0341 29.2968 35.1643C27.93 35.2944 26.7585 34.4483 26.3679 33.2768C26.1076 34.4483 25.0011 35.4246 23.6343 35.4246C22.2675 35.4246 21.161 34.5134 20.9007 33.2768C20.5753 34.4483 19.3386 35.2944 17.9718 35.1643C16.605 35.0341 15.5636 33.9927 15.4985 32.7561C15.0429 33.8626 13.8063 34.5785 12.4395 34.3182C11.0727 34.0578 10.1615 32.9513 10.1615 31.7147C9.64079 32.8212 8.27398 33.4069 6.97225 33.0164C5.41018 32.5608 4.56406 30.9988 5.01967 29.5669C5.14984 29.2414 5.60544 29.0462 5.99596 29.1763C7.2326 29.5669 8.53432 29.9574 9.77096 30.2828C10.0964 30.3479 10.8123 30.5432 11.1378 30.6082C12.4395 30.8686 13.6761 31.1289 14.9779 31.3242C15.3033 31.3893 16.0192 31.4544 16.3447 31.5194C17.6464 31.7147 18.9481 31.7798 20.2498 31.91C20.5753 31.91 21.2912 31.9751 21.6166 31.9751C22.9184 32.0401 24.2201 32.0401 25.5218 31.9751C25.8473 31.9751 26.5632 31.91 26.8886 31.91C28.1904 31.8449 29.4921 31.7147 30.7938 31.5194C31.1192 31.4544 31.8352 31.3893 32.1606 31.3242C33.4623 31.1289 34.7641 30.8686 36.0007 30.6082C36.3261 30.5432 37.0421 30.3479 37.3675 30.2828C38.6692 29.9574 39.9059 29.5669 41.1425 29.1763C41.4679 29.1113 41.7283 29.1763 41.9235 29.3716M36.8468 2.62117C36.3912 2.10048 35.5451 1.97031 34.8291 2.29574C34.0481 2.68626 33.7227 3.46729 33.983 4.18324C33.4623 3.66255 32.5511 3.59747 31.9003 4.11816C31.1843 4.57376 30.9891 5.41988 31.3145 6.07074C30.7287 5.61514 29.8175 5.68022 29.2317 6.266C28.646 6.85178 28.5809 7.6979 28.9714 8.28367C28.3205 7.95824 27.4744 8.1535 26.9537 8.80436C26.4981 9.45522 26.4981 10.2363 26.8886 10.7569C29.2968 8.02333 33.5925 3.98798 36.8468 2.62117ZM9.05501 2.23066C12.3093 2.9466 17.4511 7.63281 20.1848 10.7569C20.6404 10.2363 20.6404 9.39014 20.1197 8.73928C19.599 8.08841 18.7529 7.89316 18.102 8.21859C18.4925 7.63281 18.4274 6.7216 17.8416 6.13583C17.2559 5.55005 16.3447 5.48497 15.824 5.94057C16.1494 5.28971 15.9541 4.44359 15.2382 3.9229C14.5873 3.40221 13.6761 3.53238 13.1554 3.98798C13.3507 3.27203 13.0904 2.491 12.3093 2.10048C11.5934 1.70997 10.6822 1.90522 10.2916 2.491C10.4218 1.77505 9.96622 0.994018 9.18518 0.733673C8.40415 0.473328 7.55803 0.798759 7.2326 1.44962C7.2326 1.44962 7.16751 1.77505 7.10242 2.16557C7.49294 1.77505 8.07872 1.97031 9.05501 2.23066Z" fill="#FFA1E0"/>
</g>
<defs>
<clipPath id="clip0_1_148">
<rect width="46.8621" height="46.8621" fill="white" transform="translate(0.137939 0.603516)"/>
</clipPath>
</defs>
</svg>
