<svg width="43" height="43" viewBox="0 0 43 43" fill="none" xmlns="http://www.w3.org/2000/svg">
<path d="M31.5827 29.0742C30.4818 29.0742 29.5894 28.1817 29.5894 27.0809V15.474C29.5894 11.5621 26.4068 8.37935 22.4947 8.37935C18.5828 8.37935 15.4001 11.562 15.4001 15.474V22.2248C15.4001 23.3257 14.5077 24.2181 13.4068 24.2181C12.306 24.2181 11.4136 23.3257 11.4136 22.2248V15.474C11.4136 9.36378 16.3845 4.39282 22.4947 4.39282C28.605 4.39282 33.5759 9.36378 33.5759 15.474V27.0809C33.5759 28.1817 32.6835 29.0742 31.5827 29.0742Z" fill="#B1B4B5"/>
<path d="M34.6226 41.1443H10.3668C8.10219 41.1443 6.26636 39.3084 6.26636 37.0438V23.0204C6.26636 20.7558 8.10219 18.9199 10.3668 18.9199H34.6226C36.8872 18.9199 38.7231 20.7558 38.7231 23.0204V37.0437C38.7231 39.3084 36.8872 41.1443 34.6226 41.1443Z" fill="#FFB636"/>
<path d="M9.824 37.84H9.61857C8.97154 37.84 8.44702 37.3155 8.44702 36.6685V23.3964C8.44702 22.7494 8.97154 22.2249 9.61857 22.2249H9.824C10.471 22.2249 10.9956 22.7494 10.9956 23.3964V36.6685C10.9956 37.3155 10.471 37.84 9.824 37.84Z" fill="#FFD469"/>
</svg>
